<?xml version="1.0" standalone="no"?>
<!DOCTYPE svg PUBLIC "-//W3C//DTD SVG 1.1//EN" "http://www.w3.org/Graphics/SVG/1.1/DTD/svg11.dtd" >
<svg xmlns="http://www.w3.org/2000/svg" xmlns:xlink="http://www.w3.org/1999/xlink" version="1.1">
<metadata>
Created by FontForge 20170731 at Wed Oct  8 01:46:40 2008
 By Aleksey,,,
Copyright (c) 2008 by Absolut Vodka. All rights reserved.
</metadata>
<defs>
<font id="AbsolutHeadline" horiz-adv-x="550" >
  <font-face 
    font-family="Absolut Headline"
    font-weight="400"
    font-stretch="normal"
    units-per-em="1000"
    panose-1="2 0 0 0 0 0 0 0 0 0"
    ascent="750"
    descent="-250"
    x-height="691"
    cap-height="691"
    bbox="-103 -250 1003 950"
    underline-thickness="118"
    underline-position="-375"
    unicode-range="U+0020-FB02"
  />
<missing-glyph horiz-adv-x="520" 
d="M26 131l39 39q-33 53 -33 119t34 119l-40 40l73 74l40 -40q57 34 120 34q65 0 121 -35l41 41l73 -74l-42 -41q34 -55 34 -118t-33 -118l41 -40l-73 -73l-40 39q-56 -35 -122 -35q-65 0 -121 35l-39 -39zM138 289q0 -51 35 -86t86 -35q50 0 85.5 35t35.5 86
q0 50 -35.5 85.5t-85.5 35.5q-51 0 -86 -35.5t-35 -85.5z" />
    <glyph glyph-name=".notdef" horiz-adv-x="520" 
d="M26 131l39 39q-33 53 -33 119t34 119l-40 40l73 74l40 -40q57 34 120 34q65 0 121 -35l41 41l73 -74l-42 -41q34 -55 34 -118t-33 -118l41 -40l-73 -73l-40 39q-56 -35 -122 -35q-65 0 -121 35l-39 -39zM138 289q0 -51 35 -86t86 -35q50 0 85.5 35t35.5 86
q0 50 -35.5 85.5t-85.5 35.5q-51 0 -86 -35.5t-35 -85.5z" />
    <glyph glyph-name=".null" horiz-adv-x="0" 
 />
    <glyph glyph-name="nonmarkingreturn" horiz-adv-x="333" 
 />
    <glyph glyph-name="space" unicode=" " horiz-adv-x="160" 
 />
    <glyph glyph-name="exclam" unicode="!" horiz-adv-x="259" 
d="M52 248l-10 430q0 27 -7 33h191q-7 -6 -7 -33l-10 -430h-157zM33 84q0 39 27.5 67t66.5 28t67 -28t28 -67t-28 -66.5t-67 -27.5t-66.5 27.5t-27.5 66.5z" />
    <glyph glyph-name="quotedbl" unicode="&#x22;" horiz-adv-x="446" 
d="M62 412l-27 312h163l-27 -312h-109zM275 412l-27 312h163l-27 -312h-109z" />
    <glyph glyph-name="numbersign" unicode="#" horiz-adv-x="488" 
d="M77 0l28 212h-88l10 89h90l13 101h-87l10 89h89l26 198h93l-27 -198h68l26 198h93l-27 -198h77l-10 -89h-79l-14 -101h77l-10 -89h-79l-29 -212h-90l28 212h-69l-29 -212h-90zM208 301h69l13 101h-68z" />
    <glyph glyph-name="dollar" unicode="$" horiz-adv-x="423" 
d="M24 40v178q71 -54 138 -54q26 0 40.5 12.5t14.5 31.5q0 35 -47 72q-34 27 -45.5 36t-35.5 33t-32.5 40.5t-17 43t-8.5 56.5q0 60 36.5 103.5t98.5 57.5v95h85v-89q38 -2 88 -16q11 -3 15 -3l12 4v-160q-50 33 -97 33q-55 0 -55 -38q0 -25 56 -64q62 -46 95.5 -90.5
t33.5 -105.5q0 -71 -38.5 -121.5t-109.5 -68.5v-92h-85v84q-56 3 -115 23q-9 4 -15 4z" />
    <glyph glyph-name="percent" unicode="%" horiz-adv-x="694" 
d="M28 -26l526 744h111l-529 -744h-108zM163 363q-61 0 -100.5 46.5t-39.5 124.5q0 77 39.5 122.5t100.5 45.5t101 -45.5t40 -122.5q0 -78 -40 -124.5t-101 -46.5zM163 452q29 0 29 80q0 82 -29 82q-28 0 -28 -82q0 -80 28 -80zM530 -14q-61 0 -100.5 46.5t-39.5 124.5
q0 77 39.5 122.5t100.5 45.5t101 -45.5t40 -122.5q0 -78 -40 -124.5t-101 -46.5zM530 75q29 0 29 80q0 82 -29 82q-28 0 -28 -82q0 -80 28 -80z" />
    <glyph glyph-name="ampersand" unicode="&#x26;" horiz-adv-x="624" 
d="M626 1h-213q6 9 -12 35q-79 -47 -162 -47q-88 0 -152.5 62.5t-64.5 149.5q0 60 32.5 108.5t86.5 75.5q-53 63 -53 135q0 77 59 129t137 52q88 0 148 -52.5t60 -134.5q0 -101 -138 -162l76 -100l56 43q19 17 18 27l102 -127q-9 4 -28 -15l-57 -47l76 -99q23 -29 29 -33z
M306 160l-90 127q-44 -26 -44 -78q0 -36 20 -55t48 -19q36 0 66 25zM272 452q39 19 56.5 35t17.5 35q0 20 -14 37t-38 17q-27 0 -40.5 -16.5t-13.5 -36.5q0 -32 32 -71z" />
    <glyph glyph-name="quotesingle" unicode="'" horiz-adv-x="233" 
d="M62 412l-27 312h163l-27 -312h-109z" />
    <glyph glyph-name="parenleft" unicode="(" horiz-adv-x="289" 
d="M282 -61l-96 -37q-72 103 -113.5 205t-41.5 222t41.5 222t113.5 205l96 -38q-47 -77 -76 -179.5t-29 -209.5t29 -209.5t76 -180.5z" />
    <glyph glyph-name="parenright" unicode=")" horiz-adv-x="289" 
d="M103 -98l-96 37q47 78 76 180.5t29 209.5t-29 209.5t-76 179.5l96 38q72 -103 113.5 -205t41.5 -222t-41.5 -222t-113.5 -205z" />
    <glyph glyph-name="asterisk" unicode="*" horiz-adv-x="338" 
d="M45 485l75 73l-105 27l29 79l94 -46l-11 109h84l-11 -108l94 45l29 -79l-106 -27l76 -73l-65 -54l-59 86l-59 -86z" />
    <glyph glyph-name="plus" unicode="+" horiz-adv-x="456" 
d="M23 295v106h152v152h106v-152h152v-106h-152v-152h-106v152h-152z" />
    <glyph glyph-name="comma" unicode="," horiz-adv-x="310" 
d="M23 -139l81 312h173l-125 -312h-129z" />
    <glyph glyph-name="hyphen" unicode="-" horiz-adv-x="276" 
d="M16 222v182q6 -7 33 -7h178q27 0 33 7v-182q-6 7 -33 7h-178q-27 0 -33 -7z" />
    <glyph glyph-name="period" unicode="." horiz-adv-x="273" 
d="M32 94q0 44 30.5 74.5t73.5 30.5q44 0 74.5 -30.5t30.5 -74.5q0 -43 -30.5 -73.5t-74.5 -30.5t-74 30t-30 74z" />
    <glyph glyph-name="slash" unicode="/" horiz-adv-x="370" 
d="M-66 -90l346 841h108l-349 -841h-105z" />
    <glyph glyph-name="zero" unicode="0" horiz-adv-x="537" 
d="M270 128q14 0 24.5 9.5t16.5 28.5t10 38t5.5 47.5t2 48t0.5 46.5t-0.5 46.5t-2 48t-5.5 47.5t-10 38t-16.5 28.5t-24.5 9.5q-21 0 -34.5 -20t-19 -58.5t-7 -67.5t-1.5 -72t1.5 -72t7 -67.5t19 -58.5t34.5 -20zM268 -10q-120 0 -182 95t-62 263q0 167 62 260t182 93
t182.5 -93t62.5 -260q0 -168 -62.5 -263t-182.5 -95z" />
    <glyph glyph-name="one" unicode="1" horiz-adv-x="348" 
d="M122 33v499h-42q-27 0 -33 -7v146l269 20q-7 -6 -7 -33v-625q0 -27 7 -33h-201q7 6 7 33z" />
    <glyph glyph-name="two" unicode="2" horiz-adv-x="547" 
d="M32 0l182 243q6 8 31.5 41t36 48.5t27 44.5t23.5 55.5t7 54.5q0 26 -11.5 45t-34.5 19q-43 0 -43 -66v-33h-160v33q0 96 59 156t149 60q97 0 158 -64t61 -160q0 -157 -181 -322l142 6q29 2 33 7v-168h-479z" />
    <glyph glyph-name="three" unicode="3" horiz-adv-x="528" 
d="M32 202h175v-11q0 -51 57 -51q56 0 56 63q0 45 -23.5 67.5t-63.5 22.5h-26v112h23q80 0 80 86q0 25 -12 42.5t-37 17.5q-48 0 -48 -69h-160v3q0 96 64 156t158 60q89 0 151.5 -57t62.5 -145q0 -44 -22.5 -82t-61.5 -59q94 -49 94 -162q0 -95 -70 -150.5t-168 -55.5
q-96 0 -162.5 56t-66.5 156z" />
    <glyph glyph-name="four" unicode="4" horiz-adv-x="530" 
d="M16 140v119l207 432h238q-7 -6 -7 -33v-377h27q27 0 33 7v-155q-6 7 -33 7h-27v-107q0 -27 7 -33h-201q7 6 7 33v107h-251zM163 281h104v241z" />
    <glyph glyph-name="five" unicode="5" horiz-adv-x="516" 
d="M34 44l21 161q85 -52 154 -52q41 0 71.5 21t30.5 60q0 45 -33.5 65.5t-79.5 20.5q-60 0 -128 -24l51 395h347v-162q-5 5 -24 7h-179l-11 -85q18 2 26 2q87 0 147 -62t60 -150q0 -110 -75 -180.5t-186 -70.5q-105 0 -192 54z" />
    <glyph glyph-name="six" unicode="6" horiz-adv-x="521" 
d="M263 124q61 0 61 113q0 39 -14 70.5t-47 31.5q-60 0 -60 -105q0 -110 60 -110zM213 691h199q-11 -5 -27 -33l-129 -221q34 22 69 22q52 0 92.5 -35t59 -84t18.5 -100q0 -110 -66 -180t-175 -70q-106 0 -167 71.5t-61 177.5q0 78 47 187.5t140 264.5z" />
    <glyph glyph-name="seven" unicode="7" horiz-adv-x="570" 
d="M52 33l241 499h-203q-27 0 -33 -7v166h491l-296 -658q-11 -22 -4 -33h-219q12 7 23 33z" />
    <glyph glyph-name="eight" unicode="8" horiz-adv-x="523" 
d="M261 126q29 0 41.5 27t12.5 65q0 29 -13.5 54.5t-40.5 25.5t-40.5 -25.5t-13.5 -54.5q0 -38 12.5 -65t41.5 -27zM261 426q46 0 46 76q0 26 -10.5 47t-35.5 21t-35.5 -21t-10.5 -47q0 -76 46 -76zM142 359v2q-104 30 -104 146q0 87 65.5 140.5t157.5 53.5t157.5 -53.5
t65.5 -140.5q0 -116 -104 -146v-2q57 -19 87 -62t30 -104q0 -89 -70.5 -146t-165.5 -57t-165 57t-70 146q0 61 30 104t86 62z" />
    <glyph glyph-name="nine" unicode="9" horiz-adv-x="519" 
d="M256 362q24 0 38.5 19t18 38t3.5 38q0 110 -60 110q-61 0 -61 -113q0 -32 14 -62t47 -30zM134 33l132 231q-34 -22 -72 -22q-77 0 -123.5 67.5t-46.5 141.5q0 110 66 180t175 70q106 0 167 -71.5t61 -177.5q0 -78 -47 -187.5t-140 -264.5h-199q11 5 27 33z" />
    <glyph glyph-name="colon" unicode=":" horiz-adv-x="273" 
d="M32 94q0 44 30.5 74.5t73.5 30.5q44 0 74.5 -30.5t30.5 -74.5q0 -43 -30.5 -73.5t-74.5 -30.5t-74 30t-30 74zM32 371q0 44 30.5 74.5t73.5 30.5q44 0 74.5 -31t30.5 -74t-30.5 -73.5t-74.5 -30.5t-74 30.5t-30 73.5z" />
    <glyph glyph-name="semicolon" unicode=";" horiz-adv-x="338" 
d="M97 371q0 44 30.5 74.5t73.5 30.5t74 -31t31 -74t-30.5 -73.5t-74.5 -30.5q-43 0 -73.5 30.5t-30.5 73.5zM23 -139l81 312h173l-125 -312h-129z" />
    <glyph glyph-name="less" unicode="&#x3c;" horiz-adv-x="356" 
d="M23 299v98l310 161v-120l-176 -90l176 -90v-120z" />
    <glyph glyph-name="equal" unicode="=" horiz-adv-x="456" 
d="M23 381v106h410v-106h-410zM23 209v106h410v-106h-410z" />
    <glyph glyph-name="greater" unicode="&#x3e;" horiz-adv-x="356" 
d="M23 138v120l176 90l-176 90v120l310 -161v-98z" />
    <glyph glyph-name="question" unicode="?" horiz-adv-x="461" 
d="M131 84q0 39 27.5 67t66.5 28t67 -28t28 -67t-28 -66.5t-67 -27.5t-66.5 27.5t-27.5 66.5zM155 248l-8 146h36q80 0 80 116q0 23 -8.5 41.5t-27.5 18.5q-43 0 -43 -79h-160v13q0 96 58.5 156t145.5 60q92 0 153 -50t61 -142q0 -77 -38 -126.5t-97 -63.5l-5 -90h-147z" />
    <glyph glyph-name="at" unicode="@" horiz-adv-x="757" 
d="M648 114l26 -68q-142 -66 -288 -66q-155 0 -261 101.5t-106 264.5q0 152 109.5 260t267.5 108q89 0 166 -34t128 -106.5t51 -170.5q0 -106 -58.5 -175t-168.5 -69q-32 0 -59 14t-37 44q-47 -56 -105 -56q-51 0 -81 38.5t-30 92.5q0 98 56.5 169t149.5 71q65 0 138 -26
l-46 -227q-4 -14 8 -23.5t27 -9.5q49 0 76 48.5t27 104.5q0 74 -37 127t-90.5 76t-114.5 23q-115 0 -194.5 -82.5t-79.5 -196.5q0 -118 77 -199.5t187 -81.5q75 0 129.5 10.5t132.5 38.5zM409 323l7 32l19 83h-44q-40 0 -65.5 -39t-25.5 -82q0 -61 42 -61q52 0 67 67z" />
    <glyph glyph-name="A" unicode="A" 
d="M20 33l140 625q7 27 -1 33h225q-6 -7 1 -33l143 -625q7 -28 15 -33h-200q4 5 -1 33l-12 78h-112l-11 -78q-5 -28 1 -33h-201q6 5 13 33zM237 238h73l-38 241z" />
    <glyph glyph-name="B" unicode="B" horiz-adv-x="543" 
d="M39 33v625q0 27 -7 33h231q114 0 176 -47.5t62 -123.5q0 -109 -95 -151q53 -16 83 -63t30 -119q0 -84 -59.5 -135.5t-175.5 -51.5h-252q7 6 7 33zM236 417h14q23 0 39.5 20t16.5 48t-16.5 47.5t-39.5 19.5h-14v-135zM236 149h14q26 0 44 19t18 48t-18 48t-44 19h-14v-134
z" />
    <glyph glyph-name="C" unicode="C" horiz-adv-x="441" 
d="M428 181l-2 -182q-6 5 -13 5q-6 0 -15 -3q-31 -11 -70 -11q-137 0 -219.5 93.5t-82.5 264.5q0 163 79 258t217 95q45 0 76 -11q9 -3 15 -3l13 5l2 -182q-31 26 -80 26q-48 0 -81.5 -52t-33.5 -136q0 -88 33.5 -140.5t81.5 -52.5q49 0 80 26z" />
    <glyph glyph-name="D" unicode="D" horiz-adv-x="560" 
d="M39 33v625q0 27 -7 33h204q136 0 217 -86.5t81 -256.5q0 -155 -78 -251.5t-220 -96.5h-204q7 6 7 33zM236 532v-367q91 0 91 183q0 184 -91 184z" />
    <glyph glyph-name="E" unicode="E" horiz-adv-x="409" 
d="M39 33v625q0 27 -7 33h357v-166q-6 7 -33 7h-120v-108h105q27 0 33 7v-155q-6 7 -33 7h-105v-118h120q27 0 33 7v-172h-357q7 6 7 33z" />
    <glyph glyph-name="F" unicode="F" horiz-adv-x="400" 
d="M39 33v625q0 27 -7 33h357v-166q-6 7 -33 7h-120v-108h105q27 0 33 7v-155q-6 7 -33 7h-105v-250q0 -27 7 -33h-211q7 6 7 33z" />
    <glyph glyph-name="G" unicode="G" horiz-adv-x="598" 
d="M297 252v148h272v-52q0 -168 -69.5 -263t-202.5 -95t-202 95t-69 263q0 167 69 260t202 93q179 0 242 -165l-193 -72q6 10 -2 33q-14 39 -47 39q-64 0 -64 -188q0 -193 64 -193q46 0 60 104h-27q-27 0 -33 -7z" />
    <glyph glyph-name="H" unicode="H" 
d="M39 33v625q0 27 -7 33h211q-7 -6 -7 -33v-234h78v234q0 27 -7 33h211q-7 -6 -7 -33v-625q0 -27 7 -33h-211q7 6 7 33v245h-78v-245q0 -27 7 -33h-211q7 6 7 33z" />
    <glyph glyph-name="I" unicode="I" horiz-adv-x="275" 
d="M39 33v625q0 27 -7 33h211q-7 -6 -7 -33v-625q0 -27 7 -33h-211q7 6 7 33z" />
    <glyph glyph-name="J" unicode="J" horiz-adv-x="385" 
d="M20 -1v192q38 -36 75 -36q32 0 44.5 25t12.5 80v398q0 27 -7 33h211q-7 -6 -7 -33v-435q0 -34 -4.5 -63.5t-18 -62t-35 -55t-59 -37.5t-86.5 -15q-64 0 -96 11q-9 3 -15 3q-4 0 -9 -2z" />
    <glyph glyph-name="K" unicode="K" horiz-adv-x="568" 
d="M39 33v625q0 27 -7 33h211q-7 -6 -7 -33v-239l112 239q11 22 4 33h206q-12 -7 -23 -33l-128 -273l134 -352q12 -28 20 -33h-216q8 13 -1 33l-108 283v-283q0 -27 7 -33h-211q7 6 7 33z" />
    <glyph glyph-name="L" unicode="L" horiz-adv-x="399" 
d="M39 33v625q0 27 -7 33h211q-7 -6 -7 -33v-503h120q27 0 33 7v-162h-357q7 6 7 33z" />
    <glyph glyph-name="M" unicode="M" horiz-adv-x="805" 
d="M41 33l42 625q2 26 -3 33h266q-6 -5 -1 -33l58 -273l58 273q5 28 -1 33h264q-7 -7 -5 -33l44 -625q2 -27 10 -33h-201q6 6 4 33l-24 340l-67 -340q-5 -28 1 -33h-165q5 5 0 33l-70 352l-23 -352q-4 -25 5 -33h-201q4 3 9 33z" />
    <glyph glyph-name="N" unicode="N" horiz-adv-x="561" 
d="M39 33v625q0 27 -7 33h201l-2 -2q-3 -6 6 -31l98 -262v262q0 27 -7 33h201q-7 -6 -7 -33v-625q0 -27 7 -33h-201l1 1q3 4 -5 32l-98 262v-262q0 -27 7 -33h-201q7 6 7 33z" />
    <glyph glyph-name="O" unicode="O" horiz-adv-x="595" 
d="M297 -10q-133 0 -202 95t-69 263q0 167 69 260t202 93q134 0 203 -93t69 -260q0 -168 -69.5 -263t-202.5 -95zM297 155q65 0 65 193q0 188 -65 188q-64 0 -64 -188q0 -193 64 -193z" />
    <glyph glyph-name="P" unicode="P" horiz-adv-x="541" 
d="M39 33v625q0 27 -7 33h233q124 0 188 -56.5t64 -165.5q0 -108 -74 -167.5t-177 -59.5q-18 0 -30 1v-210q0 -27 7 -33h-211q7 6 7 33zM238 386h16q24 0 41 24t17 58t-17 58t-41 24h-16v-164z" />
    <glyph glyph-name="Q" unicode="Q" horiz-adv-x="595" 
d="M421 -54l-42 55q-39 -11 -82 -11q-133 0 -202 95t-69 263q0 167 69 260t202 93q134 0 203 -93t69 -260q0 -181 -80 -276l52 -60q17 -22 25 -22l-131 -75q2 8 -14 31zM297 155q65 0 65 193q0 188 -65 188q-64 0 -64 -188q0 -193 64 -193z" />
    <glyph glyph-name="R" unicode="R" horiz-adv-x="568" 
d="M39 33v625q0 27 -7 33h233q252 0 252 -212q0 -128 -98 -175l120 -271q18 -31 22 -33h-216q8 14 -3 33l-104 250h-2v-250q0 -27 7 -33h-211q7 6 7 33zM238 406h16q25 0 41.5 19.5t16.5 52.5t-16.5 52.5t-41.5 19.5h-16v-144z" />
    <glyph glyph-name="S" unicode="S" horiz-adv-x="465" 
d="M24 15v198q79 -60 154 -60q29 0 45 14t16 35q0 22 -12 40t-41 40q-8 6 -34.5 27t-34 27.5t-26.5 25t-25.5 31t-16.5 32t-13.5 41.5t-3.5 48q0 82 59.5 134.5t156.5 52.5q67 0 126 -19q11 -4 17 -4l13 5v-178q-56 37 -108 37q-30 0 -45.5 -12t-15.5 -31q0 -26 62 -71
q48 -37 74 -61.5t48 -66t22 -89.5q0 -99 -65.5 -160t-182.5 -61q-58 0 -139 26q-11 4 -17 4z" />
    <glyph glyph-name="T" unicode="T" horiz-adv-x="441" 
d="M122 33v499h-81q-27 0 -33 -7v166h425v-166q-6 7 -33 7h-81v-499q0 -27 7 -33h-211q7 6 7 33z" />
    <glyph glyph-name="U" unicode="U" horiz-adv-x="564" 
d="M36 221v437q0 27 -7 33h211q-7 -6 -7 -33v-442q0 -30 13.5 -45.5t35.5 -15.5q20 0 34 14t15 41v448q0 27 -7 33h211q-7 -6 -7 -33v-437q0 -106 -60 -168.5t-186 -62.5q-124 0 -185 63t-61 168z" />
    <glyph glyph-name="V" unicode="V" horiz-adv-x="537" 
d="M162 33l-143 625q-7 28 -15 33h200q-4 -5 1 -33l63 -406l64 406q5 28 1 33h200q-8 -5 -15 -33l-143 -625q-7 -26 -1 -33h-211q6 7 -1 33z" />
    <glyph glyph-name="W" unicode="W" horiz-adv-x="813" 
d="M148 33l-121 625q-7 29 -14 33h200q-5 -6 0 -33l48 -399l49 399q2 30 -1 33h195q-5 -6 0 -33l56 -414l51 414q2 30 -1 33h190q-9 -6 -13 -33l-122 -625q-5 -27 1 -33h-217q5 6 0 33l-44 228l-41 -228q-5 -27 1 -33h-217q6 8 0 33z" />
    <glyph glyph-name="X" unicode="X" horiz-adv-x="566" 
d="M23 33l158 338v1l-137 286q-13 27 -23 33h216q-6 -11 4 -33l48 -100l47 100q11 22 4 33h206q-12 -7 -23 -33l-139 -295l22 -44l137 -286q3 -4 7.5 -12t8 -13.5t7.5 -7.5h-216q3 3 2 14t-6 19l-70 142l-66 -142q-11 -22 -4 -33h-206q12 7 23 33z" />
    <glyph glyph-name="Y" unicode="Y" horiz-adv-x="545" 
d="M174 33v262l-149 363q-10 27 -21 33h216q-5 -9 2 -33l50 -155l51 155q7 24 2 33h216q-11 -6 -21 -33l-149 -363v-262q0 -27 7 -33h-211q7 6 7 33z" />
    <glyph glyph-name="Z" unicode="Z" horiz-adv-x="573" 
d="M25 0l248 532h-161q-27 0 -33 -7v166h470l-248 -526h199q27 0 33 7v-172h-508z" />
    <glyph glyph-name="bracketleft" unicode="[" horiz-adv-x="275" 
d="M32 -98v854h236v-105h-102v-645h102v-104h-236z" />
    <glyph glyph-name="backslash" unicode="\" horiz-adv-x="371" 
d="M339 -90l-349 841h108l346 -841h-105z" />
    <glyph glyph-name="bracketright" unicode="]" horiz-adv-x="275" 
d="M7 -98v104h102v645h-102v105h236v-854h-236z" />
    <glyph glyph-name="asciicircum" unicode="^" horiz-adv-x="467" 
d="M18 372l162 348h109l160 -348h-114l-102 215l-101 -215h-114z" />
    <glyph glyph-name="underscore" unicode="_" horiz-adv-x="483" 
d="M0 -198v118h483v-118h-483z" />
    <glyph glyph-name="grave" unicode="`" horiz-adv-x="254" 
d="M130 742l-91 155h143l49 -155h-101z" />
    <glyph glyph-name="a" unicode="a" 
d="M20 33l140 625q7 27 -1 33h225q-6 -7 1 -33l143 -625q7 -28 15 -33h-200q4 5 -1 33l-12 78h-112l-11 -78q-5 -28 1 -33h-201q6 5 13 33zM237 238h73l-38 241z" />
    <glyph glyph-name="b" unicode="b" horiz-adv-x="543" 
d="M39 33v625q0 27 -7 33h231q114 0 176 -47.5t62 -123.5q0 -109 -95 -151q53 -16 83 -63t30 -119q0 -84 -59.5 -135.5t-175.5 -51.5h-252q7 6 7 33zM236 417h14q23 0 39.5 20t16.5 48t-16.5 47.5t-39.5 19.5h-14v-135zM236 149h14q26 0 44 19t18 48t-18 48t-44 19h-14v-134
z" />
    <glyph glyph-name="c" unicode="c" horiz-adv-x="441" 
d="M428 181l-2 -182q-6 5 -13 5q-6 0 -15 -3q-31 -11 -70 -11q-137 0 -219.5 93.5t-82.5 264.5q0 163 79 258t217 95q45 0 76 -11q9 -3 15 -3l13 5l2 -182q-31 26 -80 26q-48 0 -81.5 -52t-33.5 -136q0 -88 33.5 -140.5t81.5 -52.5q49 0 80 26z" />
    <glyph glyph-name="d" unicode="d" horiz-adv-x="560" 
d="M39 33v625q0 27 -7 33h204q136 0 217 -86.5t81 -256.5q0 -155 -78 -251.5t-220 -96.5h-204q7 6 7 33zM236 532v-367q91 0 91 183q0 184 -91 184z" />
    <glyph glyph-name="e" unicode="e" horiz-adv-x="409" 
d="M39 33v625q0 27 -7 33h357v-166q-6 7 -33 7h-120v-108h105q27 0 33 7v-155q-6 7 -33 7h-105v-118h120q27 0 33 7v-172h-357q7 6 7 33z" />
    <glyph glyph-name="f" unicode="f" horiz-adv-x="400" 
d="M39 33v625q0 27 -7 33h357v-166q-6 7 -33 7h-120v-108h105q27 0 33 7v-155q-6 7 -33 7h-105v-250q0 -27 7 -33h-211q7 6 7 33z" />
    <glyph glyph-name="g" unicode="g" horiz-adv-x="598" 
d="M297 252v148h272v-52q0 -168 -69.5 -263t-202.5 -95t-202 95t-69 263q0 167 69 260t202 93q179 0 242 -165l-193 -72q6 10 -2 33q-14 39 -47 39q-64 0 -64 -188q0 -193 64 -193q46 0 60 104h-27q-27 0 -33 -7z" />
    <glyph glyph-name="h" unicode="h" 
d="M39 33v625q0 27 -7 33h211q-7 -6 -7 -33v-234h78v234q0 27 -7 33h211q-7 -6 -7 -33v-625q0 -27 7 -33h-211q7 6 7 33v245h-78v-245q0 -27 7 -33h-211q7 6 7 33z" />
    <glyph glyph-name="i" unicode="i" horiz-adv-x="275" 
d="M39 33v625q0 27 -7 33h211q-7 -6 -7 -33v-625q0 -27 7 -33h-211q7 6 7 33z" />
    <glyph glyph-name="j" unicode="j" horiz-adv-x="385" 
d="M20 -1v192q38 -36 75 -36q32 0 44.5 25t12.5 80v398q0 27 -7 33h211q-7 -6 -7 -33v-435q0 -34 -4.5 -63.5t-18 -62t-35 -55t-59 -37.5t-86.5 -15q-66 0 -98 11q-9 3 -15 3q-3 0 -13 -5z" />
    <glyph glyph-name="k" unicode="k" horiz-adv-x="568" 
d="M39 33v625q0 27 -7 33h211q-7 -6 -7 -33v-239l112 239q11 22 4 33h206q-12 -7 -23 -33l-128 -273l134 -352q12 -28 20 -33h-216q8 13 -1 33l-108 283v-283q0 -27 7 -33h-211q7 6 7 33z" />
    <glyph glyph-name="l" unicode="l" horiz-adv-x="399" 
d="M39 33v625q0 27 -7 33h211q-7 -6 -7 -33v-503h120q27 0 33 7v-162h-357q7 6 7 33z" />
    <glyph glyph-name="m" unicode="m" horiz-adv-x="805" 
d="M41 33l42 625q2 26 -3 33h266q-6 -5 -1 -33l58 -273l58 273q5 28 -1 33h264q-7 -7 -5 -33l44 -625q2 -27 10 -33h-201q6 6 4 33l-24 340l-67 -340q-5 -28 1 -33h-165q5 5 0 33l-70 352l-23 -352q-4 -25 5 -33h-201q4 3 9 33z" />
    <glyph glyph-name="n" unicode="n" horiz-adv-x="561" 
d="M39 33v625q0 27 -7 33h201l-2 -2q-3 -6 6 -31l98 -262v262q0 27 -7 33h201q-7 -6 -7 -33v-625q0 -27 7 -33h-201l1 1q3 4 -5 32l-98 262v-262q0 -27 7 -33h-201q7 6 7 33z" />
    <glyph glyph-name="o" unicode="o" horiz-adv-x="595" 
d="M297 -10q-133 0 -202 95t-69 263q0 167 69 260t202 93q134 0 203 -93t69 -260q0 -168 -69.5 -263t-202.5 -95zM297 155q65 0 65 193q0 188 -65 188q-64 0 -64 -188q0 -193 64 -193z" />
    <glyph glyph-name="p" unicode="p" horiz-adv-x="541" 
d="M39 33v625q0 27 -7 33h233q124 0 188 -56.5t64 -165.5q0 -108 -74 -167.5t-177 -59.5q-18 0 -30 1v-210q0 -27 7 -33h-211q7 6 7 33zM238 386h16q24 0 41 24t17 58t-17 58t-41 24h-16v-164z" />
    <glyph glyph-name="q" unicode="q" horiz-adv-x="595" 
d="M421 -54l-42 55q-39 -11 -82 -11q-133 0 -202 95t-69 263q0 167 69 260t202 93q134 0 203 -93t69 -260q0 -181 -80 -276l52 -60q17 -22 25 -22l-131 -75q2 8 -14 31zM297 155q65 0 65 193q0 188 -65 188q-64 0 -64 -188q0 -193 64 -193z" />
    <glyph glyph-name="r" unicode="r" horiz-adv-x="568" 
d="M39 33v625q0 27 -7 33h233q252 0 252 -212q0 -128 -98 -175l120 -271q18 -31 22 -33h-216q8 14 -3 33l-104 250h-2v-250q0 -27 7 -33h-211q7 6 7 33zM238 406h16q25 0 41.5 19.5t16.5 52.5t-16.5 52.5t-41.5 19.5h-16v-144z" />
    <glyph glyph-name="s" unicode="s" horiz-adv-x="465" 
d="M24 15v198q79 -60 154 -60q29 0 45 14t16 35q0 22 -12 40t-41 40q-8 6 -34.5 27t-34 27.5t-26.5 25t-25.5 31t-16.5 32t-13.5 41.5t-3.5 48q0 82 59.5 134.5t156.5 52.5q67 0 126 -19q11 -4 17 -4l13 5v-178q-56 37 -108 37q-30 0 -45.5 -12t-15.5 -31q0 -26 62 -71
q48 -37 74 -61.5t48 -66t22 -89.5q0 -99 -65.5 -160t-182.5 -61q-58 0 -139 26q-11 4 -17 4z" />
    <glyph glyph-name="t" unicode="t" horiz-adv-x="441" 
d="M122 33v499h-81q-27 0 -33 -7v166h425v-166q-6 7 -33 7h-81v-499q0 -27 7 -33h-211q7 6 7 33z" />
    <glyph glyph-name="u" unicode="u" horiz-adv-x="564" 
d="M36 221v437q0 27 -7 33h211q-7 -6 -7 -33v-442q0 -30 13.5 -45.5t35.5 -15.5q20 0 34 14t15 41v448q0 27 -7 33h211q-7 -6 -7 -33v-437q0 -106 -60 -168.5t-186 -62.5q-124 0 -185 63t-61 168z" />
    <glyph glyph-name="v" unicode="v" horiz-adv-x="537" 
d="M162 33l-143 625q-7 28 -15 33h200q-4 -5 1 -33l63 -406l64 406q5 28 1 33h200q-8 -5 -15 -33l-143 -625q-7 -26 -1 -33h-211q6 7 -1 33z" />
    <glyph glyph-name="w" unicode="w" horiz-adv-x="813" 
d="M148 33l-121 625q-7 29 -14 33h200q-5 -6 0 -33l48 -399l49 399q2 30 -1 33h195q-5 -6 0 -33l56 -414l51 414q2 30 -1 33h190q-9 -6 -13 -33l-122 -625q-5 -27 1 -33h-217q5 6 0 33l-44 228l-41 -228q-5 -27 1 -33h-217q6 8 0 33z" />
    <glyph glyph-name="x" unicode="x" horiz-adv-x="566" 
d="M23 33l158 338v1l-137 286q-13 27 -23 33h216q-6 -11 4 -33l48 -100l47 100q11 22 4 33h206q-12 -7 -23 -33l-139 -295l22 -44l137 -286q3 -4 7.5 -12t8 -13.5t7.5 -7.5h-216q3 3 2 14t-6 19l-70 142l-66 -142q-11 -22 -4 -33h-206q12 7 23 33z" />
    <glyph glyph-name="y" unicode="y" horiz-adv-x="545" 
d="M174 33v262l-149 363q-10 27 -21 33h216q-5 -9 2 -33l50 -155l51 155q7 24 2 33h216q-11 -6 -21 -33l-149 -363v-262q0 -27 7 -33h-211q7 6 7 33z" />
    <glyph glyph-name="z" unicode="z" horiz-adv-x="573" 
d="M25 0l248 532h-161q-27 0 -33 -7v166h470l-248 -526h199q27 0 33 7v-172h-508z" />
    <glyph glyph-name="braceleft" unicode="{" horiz-adv-x="285" 
d="M74 42v111q0 111 -69 128v85q36 5 52.5 45t16.5 86v134q0 64 41 94.5t98 30.5h65v-94q-40 0 -55 -25.5t-15 -71.5v-92q0 -129 -76 -146v-2q76 -10 76 -154v-90q0 -94 70 -94v-85h-71q-64 0 -98.5 41t-34.5 99z" />
    <glyph glyph-name="bar" unicode="|" horiz-adv-x="249" 
d="M72 -190v918h105v-918h-105z" />
    <glyph glyph-name="braceright" unicode="}" horiz-adv-x="285" 
d="M7 -98v85q70 0 70 94v90q0 144 76 154v2q-76 17 -76 146v92q0 46 -15 71.5t-55 25.5v94h65q57 0 98 -30.5t41 -94.5v-134q0 -46 16.5 -86t52.5 -45v-85q-69 -17 -69 -128v-111q0 -58 -34.5 -99t-98.5 -41h-71z" />
    <glyph glyph-name="asciitilde" unicode="~" horiz-adv-x="444" 
d="M51 169l-38 67q20 38 51.5 68.5t70.5 30.5q38 0 89 -30.5t73 -30.5q31 0 53 11.5t43 47.5l38 -74q-19 -36 -50.5 -64t-71.5 -28q-38 0 -89 30.5t-73 30.5q-31 0 -53 -11.5t-43 -47.5z" />
    <glyph glyph-name="uni00A0" unicode="&#xa0;" horiz-adv-x="160" 
 />
    <glyph glyph-name="exclamdown" unicode="&#xa1;" horiz-adv-x="259" 
d="M42 -184l10 430h157l10 -430q0 -27 7 -33h-191q7 6 7 33zM127 315q-39 0 -66.5 28t-27.5 67t27.5 66.5t66.5 27.5t67 -27.5t28 -66.5t-28 -67t-67 -28z" />
    <glyph glyph-name="cent" unicode="&#xa2;" horiz-adv-x="417" 
d="M209 0v85q-86 25 -133.5 95t-47.5 178q0 104 47 174t134 95v64h87v-51h8q15 0 41 -6.5t39 -6.5l14 6l3 -191q-28 14 -74 14q-44 0 -74 -27.5t-30 -70.5q0 -47 30 -75t74 -28q46 0 74 14l-3 -191q-6 6 -13 6q-11 0 -36 -6.5t-39 -6.5h-14v-71h-87z" />
    <glyph glyph-name="sterling" unicode="&#xa3;" horiz-adv-x="496" 
d="M81 -3l-46 75q44 31 74 44q19 37 19 88q0 30 -11 75h-91v86h67q-5 14 -12.5 37t-10 31t-6.5 22t-5.5 21t-2.5 16.5t-1 19.5q0 84 60 136.5t144 52.5q116 0 205 -111l-120 -92q7 14 -2 33q-14 27 -47 27q-23 0 -37.5 -16.5t-14.5 -39.5q0 -14 16.5 -61.5t20.5 -75.5h139
v-86h-139q-5 -77 -38 -127q15 0 50.5 -14.5t62.5 -14.5q45 0 74 42l53 -86q-52 -89 -147 -89q-40 0 -90.5 19.5t-73.5 19.5q-42 0 -90 -32z" />
    <glyph glyph-name="currency" unicode="&#xa4;" horiz-adv-x="464" 
d="M24 241v76h63q0 5 -0.5 15t-0.5 16q0 20 1 30h-63v76h71q21 117 88 182t169 65q41 0 69 -11q7 -3 13 -3l12 5l2 -182q-28 26 -72 26q-27 0 -50.5 -22t-36.5 -60h128v-76h-143q-2 -20 -2 -30q0 -11 2 -31h143v-76h-129q13 -41 37 -63.5t51 -22.5q44 0 72 26l-2 -182
q-5 5 -12 5q-6 0 -13 -3q-28 -11 -63 -11q-101 0 -171 65t-92 186h-71z" />
    <glyph glyph-name="yen" unicode="&#xa5;" horiz-adv-x="545" 
d="M174 33v171h-128v76h128v15l-19 46h-109v76h78l-99 241q-10 27 -21 33h216q-4 -7 2 -33l50 -205l51 205q6 26 2 33h216q-11 -6 -21 -33l-99 -241h78v-76h-109l-19 -46v-15h128v-76h-128v-171q0 -27 7 -33h-211q7 6 7 33z" />
    <glyph glyph-name="brokenbar" unicode="&#xa6;" horiz-adv-x="249" 
d="M72 284v384h105v-384h-105zM72 -250v396h105v-396h-105z" />
    <glyph glyph-name="section" unicode="&#xa7;" horiz-adv-x="467" 
d="M256 217q16 23 16 36q0 10 -4 17.5t-18.5 17t-22 13.5t-33.5 18q-15 -15 -15 -32q0 -32 77 -70zM30 -140v194q57 -49 93.5 -68.5t76.5 -19.5q64 0 64 41q0 13 -15.5 26.5t-50.5 34.5q-5 3 -28.5 16.5t-46.5 27.5t-36 23q-73 56 -73 144q0 76 58 130q-31 39 -31 100
q0 82 51.5 132t146.5 50q48 0 138 -29q11 -4 17 -4l13 5v-182q-3 2 -17.5 13t-18.5 14t-17.5 12t-20 12l-19.5 9t-23 8t-23.5 4t-27.5 2q-21 0 -32 -8.5t-11 -20.5q0 -17 14 -29t60 -38q2 -2 3.5 -2.5t3.5 -2t4 -2.5l4 -2q55 -31 69 -40q81 -50 81 -142q0 -85 -49 -141
q46 -46 46 -112q0 -88 -48 -135.5t-166 -47.5q-69 0 -159 29q-11 4 -17 4z" />
    <glyph glyph-name="dieresis" unicode="&#xa8;" horiz-adv-x="414" 
d="M233 825q0 31 21.5 53t52.5 22t53 -22t22 -53t-22 -52.5t-53 -21.5t-52.5 21.5t-21.5 52.5zM32 825q0 31 21.5 53t52.5 22t53 -22t22 -53t-22 -52.5t-53 -21.5t-52.5 21.5t-21.5 52.5z" />
    <glyph glyph-name="copyright" unicode="&#xa9;" horiz-adv-x="697" 
d="M672 318q0 -133 -95.5 -226.5t-227.5 -93.5q-135 0 -229.5 93t-94.5 227t94.5 228t229.5 94q131 0 227 -94.5t96 -227.5zM632 318q0 117 -83.5 201.5t-199.5 84.5q-120 0 -203 -84t-83 -202q0 -119 83 -203.5t203 -84.5q116 0 199.5 85t83.5 203zM173 316
q0 -86 50.5 -138t135.5 -52q58 0 101.5 35.5t50.5 93.5h-47q-8 -38 -37.5 -58.5t-67.5 -20.5q-66 0 -100.5 38.5t-34.5 101.5q0 62 34.5 102.5t100.5 40.5q38 0 67.5 -20.5t37.5 -58.5h47q-7 58 -50.5 93.5t-101.5 35.5q-85 0 -135.5 -54t-50.5 -139z" />
    <glyph glyph-name="ordfeminine" unicode="&#xaa;" horiz-adv-x="301" 
d="M39 438l63 281q4 11 0 15h101q-2 -2 0 -15l64 -281q4 -13 8 -15h-90q1 2 -1 15l-6 35h-50l-5 -35q-2 -13 0 -15h-90q4 3 6 15zM137 530h32l-17 108z" />
    <glyph glyph-name="guillemotleft" unicode="&#xab;" horiz-adv-x="455" 
d="M174 92l-158 209l158 209l85 -26l-113 -183l113 -183zM354 92l-158 209l158 209l85 -26l-113 -183l113 -183z" />
    <glyph glyph-name="logicalnot" unicode="&#xac;" horiz-adv-x="520" 
d="M26 131l39 39q-33 53 -33 119t34 119l-40 40l73 74l40 -40q57 34 120 34q65 0 121 -35l41 41l73 -74l-42 -41q34 -55 34 -118t-33 -118l41 -40l-73 -73l-40 39q-56 -35 -122 -35q-65 0 -121 35l-39 -39zM138 289q0 -51 35 -86t86 -35q50 0 85.5 35t35.5 86
q0 50 -35.5 85.5t-85.5 35.5q-51 0 -86 -35.5t-35 -85.5z" />
    <glyph glyph-name="uni00AD" unicode="&#xad;" horiz-adv-x="276" 
d="M16 222v182q6 -7 33 -7h178q27 0 33 7v-182q-6 7 -33 7h-178q-27 0 -33 -7z" />
    <glyph glyph-name="registered" unicode="&#xae;" horiz-adv-x="461" 
d="M436 484q0 -85 -60.5 -145t-145.5 -60t-145 60t-60 145q0 84 60 144.5t145 60.5t145.5 -60.5t60.5 -144.5zM413 484q0 75 -53.5 128t-129.5 53t-129 -53t-53 -128q0 -76 53 -129.5t129 -53.5t129.5 53.5t53.5 129.5zM244 463h-55v-97h-32v235h81q42 0 64 -17.5t22 -49.5
q0 -54 -47 -67l55 -101h-35zM189 573v-82h50q29 0 41 10.5t12 32.5q0 39 -53 39h-50z" />
    <glyph glyph-name="macron" unicode="&#xaf;" horiz-adv-x="405" 
d="M56 780v97h283v-97h-283z" />
    <glyph glyph-name="degree" unicode="&#xb0;" horiz-adv-x="520" 
d="M26 131l39 39q-33 53 -33 119t34 119l-40 40l73 74l40 -40q57 34 120 34q65 0 121 -35l41 41l73 -74l-42 -41q34 -55 34 -118t-33 -118l41 -40l-73 -73l-40 39q-56 -35 -122 -35q-65 0 -121 35l-39 -39zM138 289q0 -51 35 -86t86 -35q50 0 85.5 35t35.5 86
q0 50 -35.5 85.5t-85.5 35.5q-51 0 -86 -35.5t-35 -85.5z" />
    <glyph glyph-name="plusminus" unicode="&#xb1;" horiz-adv-x="456" 
d="M23 345v106h152v102h106v-102h152v-106h-152v-62h-106v62h-152zM23 143v106h410v-106h-410z" />
    <glyph glyph-name="two.superior" unicode="&#xb2;" horiz-adv-x="335" 
d="M11 274l119 158q2 3 20 26t24 32t17.5 29t16 36.5t4.5 33.5t-8.5 30t-23.5 13q-27 0 -27 -44v-21h-103v21q0 62 37.5 101.5t95.5 39.5q65 0 104 -42t39 -104q0 -105 -118 -209l93 4q19 0 21 4v-108h-311z" />
    <glyph glyph-name="three.superior" unicode="&#xb3;" horiz-adv-x="322" 
d="M7 403h115v-8q0 -34 37 -34q35 0 35 43q0 58 -55 58h-17v72h15q51 0 51 58q0 39 -30 39q-31 0 -31 -47h-106v3q0 62 42 101.5t105 39.5q56 0 96.5 -37t40.5 -94q0 -63 -54 -92q61 -32 61 -106q0 -62 -45.5 -98.5t-108.5 -36.5q-64 0 -107.5 37t-43.5 102z" />
    <glyph glyph-name="acute" unicode="&#xb4;" horiz-adv-x="254" 
d="M23 742l49 155h143l-91 -155h-101z" />
    <glyph glyph-name="mu" unicode="&#xb5;" horiz-adv-x="520" 
d="M26 131l39 39q-33 53 -33 119t34 119l-40 40l73 74l40 -40q57 34 120 34q65 0 121 -35l41 41l73 -74l-42 -41q34 -55 34 -118t-33 -118l41 -40l-73 -73l-40 39q-56 -35 -122 -35q-65 0 -121 35l-39 -39zM138 289q0 -51 35 -86t86 -35q50 0 85.5 35t35.5 86
q0 50 -35.5 85.5t-85.5 35.5q-51 0 -86 -35.5t-35 -85.5z" />
    <glyph glyph-name="paragraph" unicode="&#xb6;" horiz-adv-x="514" 
d="M172 -64v435q-62 0 -101 44.5t-39 111.5t40.5 115.5t99.5 48.5h308v-105h-31v-650h-112v650h-53v-650h-112z" />
    <glyph glyph-name="periodcentered" unicode="&#xb7;" horiz-adv-x="257" 
d="M24 362q0 44 30.5 74.5t73.5 30.5q44 0 74.5 -30.5t30.5 -74.5q0 -43 -30.5 -73.5t-74.5 -30.5t-74 30t-30 74z" />
    <glyph glyph-name="cedilla" unicode="&#xb8;" horiz-adv-x="244" 
d="M43 -194l-11 72q30 0 44.5 20.5t14.5 53.5h109q0 -57 -37 -101.5t-120 -44.5z" />
    <glyph glyph-name="one.superior" unicode="&#xb9;" horiz-adv-x="207" 
d="M64 294v326h-27q-18 0 -21 -4v95l175 13q-5 -3 -5 -20v-410q0 -17 5 -21h-132q5 4 5 21z" />
    <glyph glyph-name="ordmasculine" unicode="&#xba;" horiz-adv-x="301" 
d="M150 421q-60 0 -90.5 42.5t-30.5 118.5q0 75 30.5 116.5t90.5 41.5t91 -41.5t31 -116.5q0 -76 -31 -118.5t-91 -42.5zM150 495q30 0 30 87q0 84 -30 84q-29 0 -29 -84q0 -87 29 -87z" />
    <glyph glyph-name="guillemotright" unicode="&#xbb;" horiz-adv-x="455" 
d="M196 118l113 183l-113 183l85 26l158 -209l-158 -209zM16 118l113 183l-113 183l85 26l158 -209l-158 -209z" />
    <glyph glyph-name="onequarter" unicode="&#xbc;" horiz-adv-x="664" 
d="M42 265v326h-28q-17 0 -22 -3v94l177 15q-6 -4 -6 -21v-411q0 -17 6 -20h-132q5 3 5 20zM350 91v77l133 280h154q-3 -3 -3 -22v-243h17q19 0 22 3v-99q-4 4 -22 4h-17v-69q0 -18 3 -22h-128q3 12 3 22v69h-162zM445 183h67v155zM-1 -26l526 744h112l-530 -744h-108z" />
    <glyph glyph-name="onehalf" unicode="&#xbd;" horiz-adv-x="695" 
d="M41 267v326h-28q-18 0 -22 -4v95l177 13q-6 -4 -6 -21v-409q0 -17 6 -21h-132q5 4 5 21zM-1 -26l526 744h112l-530 -744h-108zM386 0l120 158q5 7 20.5 27.5t23 31.5t18 29t15 35.5t4.5 34.5t-8 29.5t-23 12.5q-28 0 -28 -44v-21h-103v21q0 63 38 102.5t96 39.5
q64 0 103.5 -42t39.5 -104q0 -104 -119 -209l93 4q20 0 22 4v-109h-312z" />
    <glyph glyph-name="threequarters" unicode="&#xbe;" horiz-adv-x="733" 
d="M70 -26l526 744h112l-530 -744h-108zM-15 377h115v-8q0 -33 37 -33q36 0 36 42q0 58 -56 58h-17v72h15q51 0 51 57q0 39 -30 39q-31 0 -31 -45h-106v2q0 63 42 102t105 39q56 0 96.5 -37t40.5 -94q0 -63 -54 -92q60 -34 60 -105q0 -62 -45.5 -98.5t-107.5 -36.5
q-64 0 -107.5 36.5t-43.5 101.5zM421 91v77l133 280h154q-3 -3 -3 -22v-243h17q19 0 22 3v-99q-4 4 -22 4h-17v-69q0 -18 3 -22h-128q3 12 3 22v69h-162zM516 183h67v155z" />
    <glyph glyph-name="questiondown" unicode="&#xbf;" horiz-adv-x="460" 
d="M146 410q0 39 28 66.5t67 27.5t66.5 -27.5t27.5 -66.5t-27.5 -67t-66.5 -28t-67 28t-28 67zM282 3h160v-13q0 -96 -58.5 -156t-145.5 -60q-92 0 -153 50t-61 142q0 77 38 126.5t97 63.5l5 90h147l8 -146h-36q-80 0 -80 -116q0 -23 8.5 -41.5t27.5 -18.5q43 0 43 79z" />
    <glyph glyph-name="Agrave" unicode="&#xc0;" 
d="M20 33l140 625q7 27 -1 33h225q-6 -7 1 -33l143 -625q7 -28 15 -33h-200q4 5 -1 33l-12 78h-112l-11 -78q-5 -28 1 -33h-201q6 5 13 33zM237 238h73l-38 241zM230 742l-91 155h143l49 -155h-101z" />
    <glyph glyph-name="Aacute" unicode="&#xc1;" 
d="M20 33l140 625q7 27 -1 33h225q-6 -7 1 -33l143 -625q7 -28 15 -33h-200q4 5 -1 33l-12 78h-112l-11 -78q-5 -28 1 -33h-201q6 5 13 33zM237 238h73l-38 241zM219 742l49 155h143l-91 -155h-101z" />
    <glyph glyph-name="Acircumflex" unicode="&#xc2;" 
d="M20 33l140 625q7 27 -1 33h225q-6 -7 1 -33l143 -625q7 -28 15 -33h-200q4 5 -1 33l-12 78h-112l-11 -78q-5 -28 1 -33h-201q6 5 13 33zM237 238h73l-38 241zM127 742l69 155h158l69 -155h-107l-41 89l-41 -89h-107z" />
    <glyph glyph-name="Atilde" unicode="&#xc3;" 
d="M20 33l140 625q7 27 -1 33h225q-6 -7 1 -33l143 -625q7 -28 15 -33h-200q4 5 -1 33l-12 78h-112l-11 -78q-5 -28 1 -33h-201q6 5 13 33zM237 238h73l-38 241zM98 749v16q0 50 30 86t80 36q31 0 69.5 -17t53.5 -17q37 0 37 36h83v-16q0 -50 -30 -86t-80 -36
q-31 0 -69.5 17t-53.5 17q-36 0 -36 -36h-84z" />
    <glyph glyph-name="Adieresis" unicode="&#xc4;" 
d="M20 33l140 625q7 27 -1 33h225q-6 -7 1 -33l143 -625q7 -28 15 -33h-200q4 5 -1 33l-12 78h-112l-11 -78q-5 -28 1 -33h-201q6 5 13 33zM237 238h73l-38 241zM301 818q0 31 21.5 53t52.5 22t53 -22t22 -53t-22 -52.5t-53 -21.5t-52.5 21.5t-21.5 52.5zM100 818
q0 31 21.5 53t52.5 22t53 -22t22 -53t-22 -52.5t-53 -21.5t-52.5 21.5t-21.5 52.5z" />
    <glyph glyph-name="Aring" unicode="&#xc5;" 
d="M20 33l140 625q7 27 -1 33h225q-6 -7 1 -33l143 -625q7 -28 15 -33h-200q4 5 -1 33l-12 78h-112l-11 -78q-5 -28 1 -33h-201q6 5 13 33zM237 238h73l-38 241zM167 818q0 45 31 76.5t77 31.5q45 0 76.5 -31.5t31.5 -76.5q0 -46 -31.5 -77t-76.5 -31q-46 0 -77 31t-31 77z
M226 818q0 -21 14 -35t35 -14q20 0 34.5 14t14.5 35q0 20 -14.5 34.5t-34.5 14.5q-21 0 -35 -14.5t-14 -34.5z" />
    <glyph glyph-name="AE" unicode="&#xc6;" horiz-adv-x="721" 
d="M26 33l230 625q10 27 7 33h438v-166q-6 7 -33 7h-120v-108h105q27 0 33 7v-155q-6 7 -33 7h-105v-118h120q27 0 33 7v-172h-347q7 6 7 33v178h-87l-64 -178q-10 -29 -7 -33h-198q11 7 21 33zM308 338h53v170z" />
    <glyph glyph-name="Ccedilla" unicode="&#xc7;" horiz-adv-x="441" 
d="M428 181l-2 -182q-6 5 -13 5q-6 0 -15 -3q-31 -11 -70 -11q-137 0 -219.5 93.5t-82.5 264.5q0 163 79 258t217 95q45 0 76 -11q9 -3 15 -3l13 5l2 -182q-31 26 -80 26q-48 0 -81.5 -52t-33.5 -136q0 -88 33.5 -140.5t81.5 -52.5q49 0 80 26zM131 -194l-11 72
q30 0 44.5 20.5t14.5 53.5h109q0 -57 -37 -101.5t-120 -44.5z" />
    <glyph glyph-name="Egrave" unicode="&#xc8;" horiz-adv-x="409" 
d="M39 33v625q0 27 -7 33h357v-166q-6 7 -33 7h-120v-108h105q27 0 33 7v-155q-6 7 -33 7h-105v-118h120q27 0 33 7v-172h-357q7 6 7 33zM167 742l-91 155h143l49 -155h-101z" />
    <glyph glyph-name="Eacute" unicode="&#xc9;" horiz-adv-x="409" 
d="M39 33v625q0 27 -7 33h357v-166q-6 7 -33 7h-120v-108h105q27 0 33 7v-155q-6 7 -33 7h-105v-118h120q27 0 33 7v-172h-357q7 6 7 33zM158 742l49 155h143l-91 -155h-101z" />
    <glyph glyph-name="Ecircumflex" unicode="&#xca;" horiz-adv-x="409" 
d="M39 33v625q0 27 -7 33h357v-166q-6 7 -33 7h-120v-108h105q27 0 33 7v-155q-6 7 -33 7h-105v-118h120q27 0 33 7v-172h-357q7 6 7 33zM63 742l69 155h158l69 -155h-107l-41 89l-41 -89h-107z" />
    <glyph glyph-name="Edieresis" unicode="&#xcb;" horiz-adv-x="409" 
d="M39 33v625q0 27 -7 33h357v-166q-6 7 -33 7h-120v-108h105q27 0 33 7v-155q-6 7 -33 7h-105v-118h120q27 0 33 7v-172h-357q7 6 7 33zM237 818q0 31 21.5 53t52.5 22t53 -22t22 -53t-22 -52.5t-53 -21.5t-52.5 21.5t-21.5 52.5zM36 818q0 31 21.5 53t52.5 22t53 -22
t22 -53t-22 -52.5t-53 -21.5t-52.5 21.5t-21.5 52.5z" />
    <glyph glyph-name="Igrave" unicode="&#xcc;" horiz-adv-x="275" 
d="M39 33v625q0 27 -7 33h211q-7 -6 -7 -33v-625q0 -27 7 -33h-211q7 6 7 33zM92 742l-91 155h143l49 -155h-101z" />
    <glyph glyph-name="Iacute" unicode="&#xcd;" horiz-adv-x="275" 
d="M39 33v625q0 27 -7 33h211q-7 -6 -7 -33v-625q0 -27 7 -33h-211q7 6 7 33zM81 742l49 155h143l-91 -155h-101z" />
    <glyph glyph-name="Icircumflex" unicode="&#xce;" horiz-adv-x="275" 
d="M39 33v625q0 27 -7 33h211q-7 -6 -7 -33v-625q0 -27 7 -33h-211q7 6 7 33zM-10 742l69 155h158l69 -155h-107l-41 89l-41 -89h-107z" />
    <glyph glyph-name="Idieresis" unicode="&#xcf;" horiz-adv-x="275" 
d="M39 33v625q0 27 -7 33h211q-7 -6 -7 -33v-625q0 -27 7 -33h-211q7 6 7 33zM164 818q0 31 21.5 53t52.5 22t53 -22t22 -53t-22 -52.5t-53 -21.5t-52.5 21.5t-21.5 52.5zM-37 818q0 31 21.5 53t52.5 22t53 -22t22 -53t-22 -52.5t-53 -21.5t-52.5 21.5t-21.5 52.5z" />
    <glyph glyph-name="Eth" unicode="&#xd0;" horiz-adv-x="581" 
d="M60 33v257h-51v122h51v246q0 27 -7 33h204q136 0 217 -86.5t81 -256.5q0 -155 -78 -251.5t-220 -96.5h-204q7 6 7 33zM257 290v-125q91 0 91 183q0 184 -91 184v-120h28v-122h-28z" />
    <glyph glyph-name="Ntilde" unicode="&#xd1;" horiz-adv-x="561" 
d="M39 33v625q0 27 -7 33h201l-2 -2q-3 -6 6 -31l98 -262v262q0 27 -7 33h201q-7 -6 -7 -33v-625q0 -27 7 -33h-201l1 1q3 4 -5 32l-98 262v-262q0 -27 7 -33h-201q7 6 7 33zM104 749v16q0 50 30 86t80 36q31 0 69.5 -17t53.5 -17q37 0 37 36h83v-16q0 -50 -30 -86t-80 -36
q-31 0 -69.5 17t-53.5 17q-36 0 -36 -36h-84z" />
    <glyph glyph-name="Ograve" unicode="&#xd2;" horiz-adv-x="595" 
d="M297 -10q-133 0 -202 95t-69 263q0 167 69 260t202 93q134 0 203 -93t69 -260q0 -168 -69.5 -263t-202.5 -95zM297 155q65 0 65 193q0 188 -65 188q-64 0 -64 -188q0 -193 64 -193zM252 742l-91 155h143l49 -155h-101z" />
    <glyph glyph-name="Oacute" unicode="&#xd3;" horiz-adv-x="595" 
d="M297 -10q-133 0 -202 95t-69 263q0 167 69 260t202 93q134 0 203 -93t69 -260q0 -168 -69.5 -263t-202.5 -95zM297 155q65 0 65 193q0 188 -65 188q-64 0 -64 -188q0 -193 64 -193zM241 742l49 155h143l-91 -155h-101z" />
    <glyph glyph-name="Ocircumflex" unicode="&#xd4;" horiz-adv-x="595" 
d="M297 -10q-133 0 -202 95t-69 263q0 167 69 260t202 93q134 0 203 -93t69 -260q0 -168 -69.5 -263t-202.5 -95zM297 155q65 0 65 193q0 188 -65 188q-64 0 -64 -188q0 -193 64 -193zM149 742l69 155h158l69 -155h-107l-41 89l-41 -89h-107z" />
    <glyph glyph-name="Otilde" unicode="&#xd5;" horiz-adv-x="595" 
d="M297 -10q-133 0 -202 95t-69 263q0 167 69 260t202 93q134 0 203 -93t69 -260q0 -168 -69.5 -263t-202.5 -95zM297 155q65 0 65 193q0 188 -65 188q-64 0 -64 -188q0 -193 64 -193zM121 749v16q0 50 30 86t80 36q31 0 69.5 -17t53.5 -17q37 0 37 36h83v-16q0 -50 -30 -86
t-80 -36q-31 0 -69.5 17t-53.5 17q-36 0 -36 -36h-84z" />
    <glyph glyph-name="Odieresis" unicode="&#xd6;" horiz-adv-x="595" 
d="M297 -10q-133 0 -202 95t-69 263q0 167 69 260t202 93q134 0 203 -93t69 -260q0 -168 -69.5 -263t-202.5 -95zM297 155q65 0 65 193q0 188 -65 188q-64 0 -64 -188q0 -193 64 -193zM323 818q0 31 21.5 53t52.5 22t53 -22t22 -53t-22 -52.5t-53 -21.5t-52.5 21.5
t-21.5 52.5zM122 818q0 31 21.5 53t52.5 22t53 -22t22 -53t-22 -52.5t-53 -21.5t-52.5 21.5t-21.5 52.5z" />
    <glyph glyph-name="multiply" unicode="&#xd7;" horiz-adv-x="454" 
d="M23 219l129 129l-129 129l75 75l129 -129l129 129l75 -75l-129 -129l129 -129l-75 -75l-129 129l-129 -129z" />
    <glyph glyph-name="Oslash" unicode="&#xd8;" horiz-adv-x="595" 
d="M25 -10l65 102q-64 92 -64 256q0 167 69 260t202 93q89 0 153 -45l22 35h100l-62 -98q59 -91 59 -245q0 -168 -69.5 -263t-202.5 -95q-85 0 -145 40l-26 -40h-101zM233 317l111 173q-16 46 -47 46q-64 0 -64 -188v-31zM362 348v13l-108 -170q16 -36 43 -36q65 0 65 193z
" />
    <glyph glyph-name="Ugrave" unicode="&#xd9;" horiz-adv-x="564" 
d="M36 221v437q0 27 -7 33h211q-7 -6 -7 -33v-442q0 -30 13.5 -45.5t35.5 -15.5q20 0 34 14t15 41v448q0 27 -7 33h211q-7 -6 -7 -33v-437q0 -106 -60 -168.5t-186 -62.5q-124 0 -185 63t-61 168zM237 742l-91 155h143l49 -155h-101z" />
    <glyph glyph-name="Uacute" unicode="&#xda;" horiz-adv-x="564" 
d="M36 221v437q0 27 -7 33h211q-7 -6 -7 -33v-442q0 -30 13.5 -45.5t35.5 -15.5q20 0 34 14t15 41v448q0 27 -7 33h211q-7 -6 -7 -33v-437q0 -106 -60 -168.5t-186 -62.5q-124 0 -185 63t-61 168zM226 742l49 155h143l-91 -155h-101z" />
    <glyph glyph-name="Ucircumflex" unicode="&#xdb;" horiz-adv-x="564" 
d="M36 221v437q0 27 -7 33h211q-7 -6 -7 -33v-442q0 -30 13.5 -45.5t35.5 -15.5q20 0 34 14t15 41v448q0 27 -7 33h211q-7 -6 -7 -33v-437q0 -106 -60 -168.5t-186 -62.5q-124 0 -185 63t-61 168zM134 742l69 155h158l69 -155h-107l-41 89l-41 -89h-107z" />
    <glyph glyph-name="Udieresis" unicode="&#xdc;" horiz-adv-x="564" 
d="M36 221v437q0 27 -7 33h211q-7 -6 -7 -33v-442q0 -30 13.5 -45.5t35.5 -15.5q20 0 34 14t15 41v448q0 27 -7 33h211q-7 -6 -7 -33v-437q0 -106 -60 -168.5t-186 -62.5q-124 0 -185 63t-61 168zM308 818q0 31 21.5 53t52.5 22t53 -22t22 -53t-22 -52.5t-53 -21.5
t-52.5 21.5t-21.5 52.5zM107 818q0 31 21.5 53t52.5 22t53 -22t22 -53t-22 -52.5t-53 -21.5t-52.5 21.5t-21.5 52.5z" />
    <glyph glyph-name="Yacute" unicode="&#xdd;" horiz-adv-x="545" 
d="M174 33v262l-149 363q-10 27 -21 33h216q-5 -9 2 -33l50 -155l51 155q7 24 2 33h216q-11 -6 -21 -33l-149 -363v-262q0 -27 7 -33h-211q7 6 7 33zM218 742l49 155h143l-91 -155h-101z" />
    <glyph glyph-name="Thorn" unicode="&#xde;" horiz-adv-x="541" 
d="M39 33v625q0 27 -7 33h211q-7 -6 -7 -33v-77h29q124 0 188 -56.5t64 -165.5q0 -108 -74 -167.5t-177 -59.5q-18 0 -30 1v-100q0 -27 7 -33h-211q7 6 7 33zM238 276h16q24 0 41 24t17 58t-17 58t-41 24h-16v-164z" />
    <glyph glyph-name="germandbls" unicode="&#xdf;" horiz-adv-x="894" 
d="M24 15v198q79 -60 154 -60q29 0 45 14t16 35q0 22 -12 40t-41 40q-8 6 -34.5 27t-34 27.5t-26.5 25t-25.5 31t-16.5 32t-13.5 41.5t-3.5 48q0 82 59.5 134.5t156.5 52.5q67 0 126 -19q11 -4 17 -4l13 5v-178q-56 37 -108 37q-30 0 -45.5 -12t-15.5 -31q0 -26 62 -71
q48 -37 74 -61.5t48 -66t22 -89.5q0 -99 -65.5 -160t-182.5 -61q-58 0 -139 26q-11 4 -17 4zM475 15v198q79 -60 154 -60q29 0 45 14t16 35q0 22 -12 40t-41 40q-8 6 -34.5 27t-34 27.5t-26.5 25t-25.5 31t-16.5 32t-13.5 41.5t-3.5 48q0 82 59.5 134.5t156.5 52.5
q67 0 126 -19q11 -4 17 -4l13 5v-178q-56 37 -108 37q-30 0 -45.5 -12t-15.5 -31q0 -26 62 -71q48 -37 74 -61.5t48 -66t22 -89.5q0 -99 -65.5 -160t-182.5 -61q-58 0 -139 26q-11 4 -17 4z" />
    <glyph glyph-name="agrave" unicode="&#xe0;" 
d="M20 33l140 625q7 27 -1 33h225q-6 -7 1 -33l143 -625q7 -28 15 -33h-200q4 5 -1 33l-12 78h-112l-11 -78q-5 -28 1 -33h-201q6 5 13 33zM237 238h73l-38 241zM230 742l-91 155h143l49 -155h-101z" />
    <glyph glyph-name="aacute" unicode="&#xe1;" 
d="M20 33l140 625q7 27 -1 33h225q-6 -7 1 -33l143 -625q7 -28 15 -33h-200q4 5 -1 33l-12 78h-112l-11 -78q-5 -28 1 -33h-201q6 5 13 33zM237 238h73l-38 241zM219 742l49 155h143l-91 -155h-101z" />
    <glyph glyph-name="acircumflex" unicode="&#xe2;" 
d="M20 33l140 625q7 27 -1 33h225q-6 -7 1 -33l143 -625q7 -28 15 -33h-200q4 5 -1 33l-12 78h-112l-11 -78q-5 -28 1 -33h-201q6 5 13 33zM237 238h73l-38 241zM127 742l69 155h158l69 -155h-107l-41 89l-41 -89h-107z" />
    <glyph glyph-name="atilde" unicode="&#xe3;" 
d="M20 33l140 625q7 27 -1 33h225q-6 -7 1 -33l143 -625q7 -28 15 -33h-200q4 5 -1 33l-12 78h-112l-11 -78q-5 -28 1 -33h-201q6 5 13 33zM237 238h73l-38 241zM98 749v16q0 50 30 86t80 36q31 0 69.5 -17t53.5 -17q37 0 37 36h83v-16q0 -50 -30 -86t-80 -36
q-31 0 -69.5 17t-53.5 17q-36 0 -36 -36h-84z" />
    <glyph glyph-name="adieresis" unicode="&#xe4;" 
d="M20 33l140 625q7 27 -1 33h225q-6 -7 1 -33l143 -625q7 -28 15 -33h-200q4 5 -1 33l-12 78h-112l-11 -78q-5 -28 1 -33h-201q6 5 13 33zM237 238h73l-38 241zM301 818q0 31 21.5 53t52.5 22t53 -22t22 -53t-22 -52.5t-53 -21.5t-52.5 21.5t-21.5 52.5zM100 818
q0 31 21.5 53t52.5 22t53 -22t22 -53t-22 -52.5t-53 -21.5t-52.5 21.5t-21.5 52.5z" />
    <glyph glyph-name="aring" unicode="&#xe5;" 
d="M20 33l140 625q7 27 -1 33h225q-6 -7 1 -33l143 -625q7 -28 15 -33h-200q4 5 -1 33l-12 78h-112l-11 -78q-5 -28 1 -33h-201q6 5 13 33zM237 238h73l-38 241zM167 818q0 45 31 76.5t77 31.5q45 0 76.5 -31.5t31.5 -76.5q0 -46 -31.5 -77t-76.5 -31q-46 0 -77 31t-31 77z
M226 818q0 -21 14 -35t35 -14q20 0 34.5 14t14.5 35q0 20 -14.5 34.5t-34.5 14.5q-21 0 -35 -14.5t-14 -34.5z" />
    <glyph glyph-name="ae" unicode="&#xe6;" horiz-adv-x="721" 
d="M26 33l230 625q11 28 7 33h438v-166q-6 7 -33 7h-120v-108h105q27 0 33 7v-155q-6 7 -33 7h-105v-118h120q27 0 33 7v-172h-347q7 6 7 33v178h-87l-64 -178q-10 -29 -7 -33h-198q11 7 21 33zM308 338h53v170z" />
    <glyph glyph-name="ccedilla" unicode="&#xe7;" horiz-adv-x="441" 
d="M428 181l-2 -182q-6 5 -13 5q-6 0 -15 -3q-31 -11 -70 -11q-137 0 -219.5 93.5t-82.5 264.5q0 163 79 258t217 95q45 0 76 -11q9 -3 15 -3l13 5l2 -182q-31 26 -80 26q-48 0 -81.5 -52t-33.5 -136q0 -88 33.5 -140.5t81.5 -52.5q49 0 80 26zM131 -194l-11 72
q30 0 44.5 20.5t14.5 53.5h109q0 -57 -37 -101.5t-120 -44.5z" />
    <glyph glyph-name="egrave" unicode="&#xe8;" horiz-adv-x="409" 
d="M39 33v625q0 27 -7 33h357v-166q-6 7 -33 7h-120v-108h105q27 0 33 7v-155q-6 7 -33 7h-105v-118h120q27 0 33 7v-172h-357q7 6 7 33zM167 742l-91 155h143l49 -155h-101z" />
    <glyph glyph-name="eacute" unicode="&#xe9;" horiz-adv-x="409" 
d="M39 33v625q0 27 -7 33h357v-166q-6 7 -33 7h-120v-108h105q27 0 33 7v-155q-6 7 -33 7h-105v-118h120q27 0 33 7v-172h-357q7 6 7 33zM158 742l49 155h143l-91 -155h-101z" />
    <glyph glyph-name="ecircumflex" unicode="&#xea;" horiz-adv-x="409" 
d="M39 33v625q0 27 -7 33h357v-166q-6 7 -33 7h-120v-108h105q27 0 33 7v-155q-6 7 -33 7h-105v-118h120q27 0 33 7v-172h-357q7 6 7 33zM63 742l69 155h158l69 -155h-107l-41 89l-41 -89h-107z" />
    <glyph glyph-name="edieresis" unicode="&#xeb;" horiz-adv-x="409" 
d="M39 33v625q0 27 -7 33h357v-166q-6 7 -33 7h-120v-108h105q27 0 33 7v-155q-6 7 -33 7h-105v-118h120q27 0 33 7v-172h-357q7 6 7 33zM237 818q0 31 21.5 53t52.5 22t53 -22t22 -53t-22 -52.5t-53 -21.5t-52.5 21.5t-21.5 52.5zM36 818q0 31 21.5 53t52.5 22t53 -22
t22 -53t-22 -52.5t-53 -21.5t-52.5 21.5t-21.5 52.5z" />
    <glyph glyph-name="igrave" unicode="&#xec;" horiz-adv-x="275" 
d="M39 33v625q0 27 -7 33h211q-7 -6 -7 -33v-625q0 -27 7 -33h-211q7 6 7 33zM92 742l-91 155h143l49 -155h-101z" />
    <glyph glyph-name="iacute" unicode="&#xed;" horiz-adv-x="275" 
d="M39 33v625q0 27 -7 33h211q-7 -6 -7 -33v-625q0 -27 7 -33h-211q7 6 7 33zM81 742l49 155h143l-91 -155h-101z" />
    <glyph glyph-name="icircumflex" unicode="&#xee;" horiz-adv-x="275" 
d="M39 33v625q0 27 -7 33h211q-7 -6 -7 -33v-625q0 -27 7 -33h-211q7 6 7 33zM-10 742l69 155h158l69 -155h-107l-41 89l-41 -89h-107z" />
    <glyph glyph-name="idieresis" unicode="&#xef;" horiz-adv-x="275" 
d="M39 33v625q0 27 -7 33h211q-7 -6 -7 -33v-625q0 -27 7 -33h-211q7 6 7 33zM164 818q0 31 21.5 53t52.5 22t53 -22t22 -53t-22 -52.5t-53 -21.5t-52.5 21.5t-21.5 52.5zM-37 818q0 31 21.5 53t52.5 22t53 -22t22 -53t-22 -52.5t-53 -21.5t-52.5 21.5t-21.5 52.5z" />
    <glyph glyph-name="eth" unicode="&#xf0;" horiz-adv-x="581" 
d="M60 33v257h-51v122h51v246q0 27 -7 33h204q136 0 217 -86.5t81 -256.5q0 -155 -78 -251.5t-220 -96.5h-204q7 6 7 33zM257 290v-125q91 0 91 183q0 184 -91 184v-120h28v-122h-28z" />
    <glyph glyph-name="ntilde" unicode="&#xf1;" horiz-adv-x="561" 
d="M39 33v625q0 27 -7 33h201l-2 -2q-3 -6 6 -31l98 -262v262q0 27 -7 33h201q-7 -6 -7 -33v-625q0 -27 7 -33h-201l1 1q3 4 -5 32l-98 262v-262q0 -27 7 -33h-201q7 6 7 33zM104 749v16q0 50 30 86t80 36q31 0 69.5 -17t53.5 -17q37 0 37 36h83v-16q0 -50 -30 -86t-80 -36
q-31 0 -69.5 17t-53.5 17q-36 0 -36 -36h-84z" />
    <glyph glyph-name="ograve" unicode="&#xf2;" horiz-adv-x="595" 
d="M297 -10q-133 0 -202 95t-69 263q0 167 69 260t202 93q134 0 203 -93t69 -260q0 -168 -69.5 -263t-202.5 -95zM297 155q65 0 65 193q0 188 -65 188q-64 0 -64 -188q0 -193 64 -193zM252 742l-91 155h143l49 -155h-101z" />
    <glyph glyph-name="oacute" unicode="&#xf3;" horiz-adv-x="595" 
d="M297 -10q-133 0 -202 95t-69 263q0 167 69 260t202 93q134 0 203 -93t69 -260q0 -168 -69.5 -263t-202.5 -95zM297 155q65 0 65 193q0 188 -65 188q-64 0 -64 -188q0 -193 64 -193zM241 742l49 155h143l-91 -155h-101z" />
    <glyph glyph-name="ocircumflex" unicode="&#xf4;" horiz-adv-x="595" 
d="M297 -10q-133 0 -202 95t-69 263q0 167 69 260t202 93q134 0 203 -93t69 -260q0 -168 -69.5 -263t-202.5 -95zM297 155q65 0 65 193q0 188 -65 188q-64 0 -64 -188q0 -193 64 -193zM149 742l69 155h158l69 -155h-107l-41 89l-41 -89h-107z" />
    <glyph glyph-name="otilde" unicode="&#xf5;" horiz-adv-x="595" 
d="M297 -10q-133 0 -202 95t-69 263q0 167 69 260t202 93q134 0 203 -93t69 -260q0 -168 -69.5 -263t-202.5 -95zM297 155q65 0 65 193q0 188 -65 188q-64 0 -64 -188q0 -193 64 -193zM121 749v16q0 50 30 86t80 36q31 0 69.5 -17t53.5 -17q37 0 37 36h83v-16q0 -50 -30 -86
t-80 -36q-31 0 -69.5 17t-53.5 17q-36 0 -36 -36h-84z" />
    <glyph glyph-name="odieresis" unicode="&#xf6;" horiz-adv-x="595" 
d="M297 -10q-133 0 -202 95t-69 263q0 167 69 260t202 93q134 0 203 -93t69 -260q0 -168 -69.5 -263t-202.5 -95zM297 155q65 0 65 193q0 188 -65 188q-64 0 -64 -188q0 -193 64 -193zM323 818q0 31 21.5 53t52.5 22t53 -22t22 -53t-22 -52.5t-53 -21.5t-52.5 21.5
t-21.5 52.5zM122 818q0 31 21.5 53t52.5 22t53 -22t22 -53t-22 -52.5t-53 -21.5t-52.5 21.5t-21.5 52.5z" />
    <glyph glyph-name="divide" unicode="&#xf7;" horiz-adv-x="456" 
d="M23 295v106h410v-106h-410zM168 203q0 25 17.5 42.5t42.5 17.5t42.5 -17.5t17.5 -42.5t-17.5 -42.5t-42.5 -17.5t-42.5 17.5t-17.5 42.5zM168 493q0 25 17.5 42.5t42.5 17.5t42.5 -17.5t17.5 -42.5t-17.5 -42.5t-42.5 -17.5t-42.5 17.5t-17.5 42.5z" />
    <glyph glyph-name="oslash" unicode="&#xf8;" horiz-adv-x="595" 
d="M25 -10l65 102q-64 92 -64 256q0 167 69 260t202 93q89 0 153 -45l22 35h100l-62 -98q59 -91 59 -245q0 -168 -69.5 -263t-202.5 -95q-85 0 -145 40l-26 -40h-101zM233 317l111 173q-16 46 -47 46q-64 0 -64 -188v-31zM362 348v13l-108 -170q16 -36 43 -36q65 0 65 193z
" />
    <glyph glyph-name="ugrave" unicode="&#xf9;" horiz-adv-x="564" 
d="M36 221v437q0 27 -7 33h211q-7 -6 -7 -33v-442q0 -30 13.5 -45.5t35.5 -15.5q20 0 34 14t15 41v448q0 27 -7 33h211q-7 -6 -7 -33v-437q0 -106 -60 -168.5t-186 -62.5q-124 0 -185 63t-61 168zM237 742l-91 155h143l49 -155h-101z" />
    <glyph glyph-name="uacute" unicode="&#xfa;" horiz-adv-x="564" 
d="M36 221v437q0 27 -7 33h211q-7 -6 -7 -33v-442q0 -30 13.5 -45.5t35.5 -15.5q20 0 34 14t15 41v448q0 27 -7 33h211q-7 -6 -7 -33v-437q0 -106 -60 -168.5t-186 -62.5q-124 0 -185 63t-61 168zM226 742l49 155h143l-91 -155h-101z" />
    <glyph glyph-name="ucircumflex" unicode="&#xfb;" horiz-adv-x="564" 
d="M36 221v437q0 27 -7 33h211q-7 -6 -7 -33v-442q0 -30 13.5 -45.5t35.5 -15.5q20 0 34 14t15 41v448q0 27 -7 33h211q-7 -6 -7 -33v-437q0 -106 -60 -168.5t-186 -62.5q-124 0 -185 63t-61 168zM134 742l69 155h158l69 -155h-107l-41 89l-41 -89h-107z" />
    <glyph glyph-name="udieresis" unicode="&#xfc;" horiz-adv-x="564" 
d="M36 221v437q0 27 -7 33h211q-7 -6 -7 -33v-442q0 -30 13.5 -45.5t35.5 -15.5q20 0 34 14t15 41v448q0 27 -7 33h211q-7 -6 -7 -33v-437q0 -106 -60 -168.5t-186 -62.5q-124 0 -185 63t-61 168zM308 818q0 31 21.5 53t52.5 22t53 -22t22 -53t-22 -52.5t-53 -21.5
t-52.5 21.5t-21.5 52.5zM107 818q0 31 21.5 53t52.5 22t53 -22t22 -53t-22 -52.5t-53 -21.5t-52.5 21.5t-21.5 52.5z" />
    <glyph glyph-name="yacute" unicode="&#xfd;" horiz-adv-x="545" 
d="M174 33v262l-149 363q-10 27 -21 33h216q-5 -9 2 -33l50 -155l51 155q7 24 2 33h216q-11 -6 -21 -33l-149 -363v-262q0 -27 7 -33h-211q7 6 7 33zM218 742l49 155h143l-91 -155h-101z" />
    <glyph glyph-name="thorn" unicode="&#xfe;" horiz-adv-x="541" 
d="M39 33v625q0 27 -7 33h211q-7 -6 -7 -33v-77h29q124 0 188 -56.5t64 -165.5q0 -108 -74 -167.5t-177 -59.5q-18 0 -30 1v-100q0 -27 7 -33h-211q7 6 7 33zM238 276h16q24 0 41 24t17 58t-17 58t-41 24h-16v-164z" />
    <glyph glyph-name="ydieresis" unicode="&#xff;" horiz-adv-x="545" 
d="M174 33v262l-149 363q-10 27 -21 33h216q-5 -9 2 -33l50 -155l51 155q7 24 2 33h216q-11 -6 -21 -33l-149 -363v-262q0 -27 7 -33h-211q7 6 7 33zM298 818q0 31 21.5 53t52.5 22t53 -22t22 -53t-22 -52.5t-53 -21.5t-52.5 21.5t-21.5 52.5zM97 818q0 31 21.5 53t52.5 22
t53 -22t22 -53t-22 -52.5t-53 -21.5t-52.5 21.5t-21.5 52.5z" />
    <glyph glyph-name="Amacron" unicode="&#x100;" 
d="M20 33l140 625q7 27 -1 33h225q-6 -7 1 -33l143 -625q7 -28 15 -33h-200q4 5 -1 33l-12 78h-112l-11 -78q-5 -28 1 -33h-201q6 5 13 33zM237 238h73l-38 241zM128 780v97h283v-97h-283z" />
    <glyph glyph-name="amacron" unicode="&#x101;" 
d="M20 33l140 625q7 27 -1 33h225q-6 -7 1 -33l143 -625q7 -28 15 -33h-200q4 5 -1 33l-12 78h-112l-11 -78q-5 -28 1 -33h-201q6 5 13 33zM237 238h73l-38 241zM128 780v97h283v-97h-283z" />
    <glyph glyph-name="Abreve" unicode="&#x102;" 
d="M20 33l140 625q7 27 -1 33h225q-6 -7 1 -33l143 -625q7 -28 15 -33h-200q4 5 -1 33l-12 78h-112l-11 -78q-5 -28 1 -33h-201q6 5 13 33zM237 238h73l-38 241zM127 907h72q11 -33 29 -45t48 -12t48 12t28 45h72q-4 -70 -44.5 -113t-103.5 -43t-103.5 43t-45.5 113z" />
    <glyph glyph-name="abreve" unicode="&#x103;" 
d="M20 33l140 625q7 27 -1 33h225q-6 -7 1 -33l143 -625q7 -28 15 -33h-200q4 5 -1 33l-12 78h-112l-11 -78q-5 -28 1 -33h-201q6 5 13 33zM237 238h73l-38 241zM126 907h72q11 -33 29 -45t48 -12t48 12t28 45h72q-4 -70 -44.5 -113t-103.5 -43t-103.5 43t-45.5 113z" />
    <glyph glyph-name="Aogonek" unicode="&#x104;" 
d="M20 33l140 625q7 27 -1 33h225q-6 -7 1 -33l143 -625q7 -28 15 -33h-55q-38 -34 -38 -71q0 -19 12.5 -29.5t32.5 -10.5q17 0 38 7l-8 -79q-21 -10 -46 -10q-47 0 -83 23t-36 68q0 55 59 102h-76q4 5 -1 33l-12 78h-112l-11 -78q-5 -28 1 -33h-201q6 5 13 33zM237 238h73
l-38 241z" />
    <glyph glyph-name="aogonek" unicode="&#x105;" 
d="M20 33l140 625q7 27 -1 33h225q-6 -7 1 -33l143 -625q7 -28 15 -33h-55q-38 -34 -38 -71q0 -19 12.5 -29.5t32.5 -10.5q17 0 38 7l-8 -79q-21 -10 -46 -10q-47 0 -83 23t-36 68q0 55 59 102h-76q4 5 -1 33l-12 78h-112l-11 -78q-5 -28 1 -33h-201q6 5 13 33zM237 238h73
l-38 241z" />
    <glyph glyph-name="Cacute" unicode="&#x106;" horiz-adv-x="441" 
d="M428 181l-2 -182q-6 5 -13 5q-6 0 -15 -3q-31 -11 -70 -11q-137 0 -219.5 93.5t-82.5 264.5q0 163 79 258t217 95q45 0 76 -11q9 -3 15 -3l13 5l2 -182q-31 26 -80 26q-48 0 -81.5 -52t-33.5 -136q0 -88 33.5 -140.5t81.5 -52.5q49 0 80 26zM216 742l49 155h143l-91 -155
h-101z" />
    <glyph glyph-name="cacute" unicode="&#x107;" horiz-adv-x="441" 
d="M428 181l-2 -182q-6 5 -13 5q-6 0 -15 -3q-31 -11 -70 -11q-137 0 -219.5 93.5t-82.5 264.5q0 163 79 258t217 95q45 0 76 -11q9 -3 15 -3l13 5l2 -182q-31 26 -80 26q-48 0 -81.5 -52t-33.5 -136q0 -88 33.5 -140.5t81.5 -52.5q49 0 80 26zM216 742l49 155h143l-91 -155
h-101z" />
    <glyph glyph-name="Ccircumflex" unicode="&#x108;" horiz-adv-x="441" 
d="M428 181l-2 -182q-6 5 -13 5q-6 0 -15 -3q-31 -11 -70 -11q-137 0 -219.5 93.5t-82.5 264.5q0 163 79 258t217 95q45 0 76 -11q9 -3 15 -3l13 5l2 -182q-31 26 -80 26q-48 0 -81.5 -52t-33.5 -136q0 -88 33.5 -140.5t81.5 -52.5q49 0 80 26zM142 742l69 155h158l69 -155
h-107l-41 89l-41 -89h-107z" />
    <glyph glyph-name="ccircumflex" unicode="&#x109;" horiz-adv-x="441" 
d="M428 181l-2 -182q-6 5 -13 5q-6 0 -15 -3q-31 -11 -70 -11q-137 0 -219.5 93.5t-82.5 264.5q0 163 79 258t217 95q45 0 76 -11q9 -3 15 -3l13 5l2 -182q-31 26 -80 26q-48 0 -81.5 -52t-33.5 -136q0 -88 33.5 -140.5t81.5 -52.5q49 0 80 26zM142 742l69 155h158l69 -155
h-107l-41 89l-41 -89h-107z" />
    <glyph glyph-name="Cdotaccent" unicode="&#x10a;" horiz-adv-x="441" 
d="M428 181l-2 -182q-6 5 -13 5q-6 0 -15 -3q-31 -11 -70 -11q-137 0 -219.5 93.5t-82.5 264.5q0 163 79 258t217 95q45 0 76 -11q9 -3 15 -3l13 5l2 -182q-31 26 -80 26q-48 0 -81.5 -52t-33.5 -136q0 -88 33.5 -140.5t81.5 -52.5q49 0 80 26zM216 817q0 31 21.5 53
t52.5 22t53 -22t22 -53t-22 -52.5t-53 -21.5t-52.5 21.5t-21.5 52.5z" />
    <glyph glyph-name="cdotaccent" unicode="&#x10b;" horiz-adv-x="441" 
d="M428 181l-2 -182q-6 5 -13 5q-6 0 -15 -3q-31 -11 -70 -11q-137 0 -219.5 93.5t-82.5 264.5q0 163 79 258t217 95q45 0 76 -11q9 -3 15 -3l13 5l2 -182q-31 26 -80 26q-48 0 -81.5 -52t-33.5 -136q0 -88 33.5 -140.5t81.5 -52.5q49 0 80 26zM216 817q0 31 21.5 53
t52.5 22t53 -22t22 -53t-22 -52.5t-53 -21.5t-52.5 21.5t-21.5 52.5z" />
    <glyph glyph-name="Ccaron" unicode="&#x10c;" horiz-adv-x="441" 
d="M428 181l-2 -182q-6 5 -13 5q-6 0 -15 -3q-31 -11 -70 -11q-137 0 -219.5 93.5t-82.5 264.5q0 163 79 258t217 95q45 0 76 -11q9 -3 15 -3l13 5l2 -182q-31 26 -80 26q-48 0 -81.5 -52t-33.5 -136q0 -88 33.5 -140.5t81.5 -52.5q49 0 80 26zM211 741l-69 155h107l41 -89
l41 89h107l-69 -155h-158z" />
    <glyph glyph-name="ccaron" unicode="&#x10d;" horiz-adv-x="441" 
d="M428 181l-2 -182q-6 5 -13 5q-6 0 -15 -3q-31 -11 -70 -11q-137 0 -219.5 93.5t-82.5 264.5q0 163 79 258t217 95q45 0 76 -11q9 -3 15 -3l13 5l2 -182q-31 26 -80 26q-48 0 -81.5 -52t-33.5 -136q0 -88 33.5 -140.5t81.5 -52.5q49 0 80 26zM211 741l-69 155h107l41 -89
l41 89h107l-69 -155h-158z" />
    <glyph glyph-name="Dcaron" unicode="&#x10e;" horiz-adv-x="560" 
d="M39 33v625q0 27 -7 33h204q136 0 217 -86.5t81 -256.5q0 -155 -78 -251.5t-220 -96.5h-204q7 6 7 33zM236 532v-367q91 0 91 183q0 184 -91 184zM178 741l-69 155h107l41 -89l41 89h107l-69 -155h-158z" />
    <glyph glyph-name="dcaron" unicode="&#x10f;" horiz-adv-x="560" 
d="M39 33v625q0 27 -7 33h204q136 0 217 -86.5t81 -256.5q0 -155 -78 -251.5t-220 -96.5h-204q7 6 7 33zM236 532v-367q91 0 91 183q0 184 -91 184zM178 741l-69 155h107l41 -89l41 89h107l-69 -155h-158z" />
    <glyph glyph-name="Dcroat" unicode="&#x110;" horiz-adv-x="581" 
d="M60 33v257h-51v122h51v246q0 27 -7 33h204q136 0 217 -86.5t81 -256.5q0 -155 -78 -251.5t-220 -96.5h-204q7 6 7 33zM257 290v-125q91 0 91 183q0 184 -91 184v-120h28v-122h-28z" />
    <glyph glyph-name="dcroat" unicode="&#x111;" horiz-adv-x="581" 
d="M60 33v257h-51v122h51v246q0 27 -7 33h204q136 0 217 -86.5t81 -256.5q0 -155 -78 -251.5t-220 -96.5h-204q7 6 7 33zM257 290v-125q91 0 91 183q0 184 -91 184v-120h28v-122h-28z" />
    <glyph glyph-name="Emacron" unicode="&#x112;" horiz-adv-x="409" 
d="M39 33v625q0 27 -7 33h357v-166q-6 7 -33 7h-120v-108h105q27 0 33 7v-155q-6 7 -33 7h-105v-118h120q27 0 33 7v-172h-357q7 6 7 33zM70 780v97h283v-97h-283z" />
    <glyph glyph-name="emacron" unicode="&#x113;" horiz-adv-x="409" 
d="M39 33v625q0 27 -7 33h357v-166q-6 7 -33 7h-120v-108h105q27 0 33 7v-155q-6 7 -33 7h-105v-118h120q27 0 33 7v-172h-357q7 6 7 33zM70 780v97h283v-97h-283z" />
    <glyph glyph-name="Ebreve" unicode="&#x114;" horiz-adv-x="409" 
d="M39 33v625q0 27 -7 33h357v-166q-6 7 -33 7h-120v-108h105q27 0 33 7v-155q-6 7 -33 7h-105v-118h120q27 0 33 7v-172h-357q7 6 7 33zM62 907h72q11 -33 29 -45t48 -12t48 12t28 45h72q-4 -70 -44.5 -113t-103.5 -43t-103.5 43t-45.5 113z" />
    <glyph glyph-name="ebreve" unicode="&#x115;" horiz-adv-x="409" 
d="M39 33v625q0 27 -7 33h357v-166q-6 7 -33 7h-120v-108h105q27 0 33 7v-155q-6 7 -33 7h-105v-118h120q27 0 33 7v-172h-357q7 6 7 33zM62 907h72q11 -33 29 -45t48 -12t48 12t28 45h72q-4 -70 -44.5 -113t-103.5 -43t-103.5 43t-45.5 113z" />
    <glyph glyph-name="Edotaccent" unicode="&#x116;" horiz-adv-x="409" 
d="M39 33v625q0 27 -7 33h357v-166q-6 7 -33 7h-120v-108h105q27 0 33 7v-155q-6 7 -33 7h-105v-118h120q27 0 33 7v-172h-357q7 6 7 33zM137 817q0 31 21.5 53t52.5 22t53 -22t22 -53t-22 -52.5t-53 -21.5t-52.5 21.5t-21.5 52.5z" />
    <glyph glyph-name="edotaccent" unicode="&#x117;" horiz-adv-x="409" 
d="M39 33v625q0 27 -7 33h357v-166q-6 7 -33 7h-120v-108h105q27 0 33 7v-155q-6 7 -33 7h-105v-118h120q27 0 33 7v-172h-357q7 6 7 33zM137 817q0 31 21.5 53t52.5 22t53 -22t22 -53t-22 -52.5t-53 -21.5t-52.5 21.5t-21.5 52.5z" />
    <glyph glyph-name="Eogonek" unicode="&#x118;" horiz-adv-x="409" 
d="M39 33v625q0 27 -7 33h357v-166q-6 7 -33 7h-120v-108h105q27 0 33 7v-155q-6 7 -33 7h-105v-118h120q27 0 33 7v-172h-55q-38 -34 -38 -71q0 -19 12.5 -29.5t32.5 -10.5q17 0 38 7l-8 -79q-21 -10 -46 -10q-47 0 -83 23t-36 68q0 55 59 102h-233q7 6 7 33z" />
    <glyph glyph-name="eogonek" unicode="&#x119;" horiz-adv-x="409" 
d="M39 33v625q0 27 -7 33h357v-166q-6 7 -33 7h-120v-108h105q27 0 33 7v-155q-6 7 -33 7h-105v-118h120q27 0 33 7v-172h-55q-38 -34 -38 -71q0 -19 12.5 -29.5t32.5 -10.5q17 0 38 7l-8 -79q-21 -10 -46 -10q-47 0 -83 23t-36 68q0 55 59 102h-233q7 6 7 33z" />
    <glyph glyph-name="Ecaron" unicode="&#x11a;" horiz-adv-x="409" 
d="M39 33v625q0 27 -7 33h357v-166q-6 7 -33 7h-120v-108h105q27 0 33 7v-155q-6 7 -33 7h-105v-118h120q27 0 33 7v-172h-357q7 6 7 33zM132 741l-69 155h107l41 -89l41 89h107l-69 -155h-158z" />
    <glyph glyph-name="ecaron" unicode="&#x11b;" horiz-adv-x="409" 
d="M39 33v625q0 27 -7 33h357v-166q-6 7 -33 7h-120v-108h105q27 0 33 7v-155q-6 7 -33 7h-105v-118h120q27 0 33 7v-172h-357q7 6 7 33zM132 741l-69 155h107l41 -89l41 89h107l-69 -155h-158z" />
    <glyph glyph-name="Gcircumflex" unicode="&#x11c;" horiz-adv-x="598" 
d="M297 252v148h272v-52q0 -168 -69.5 -263t-202.5 -95t-202 95t-69 263q0 167 69 260t202 93q179 0 242 -165l-193 -72q6 10 -2 33q-14 39 -47 39q-64 0 -64 -188q0 -193 64 -193q46 0 60 104h-27q-27 0 -33 -7zM148 742l69 155h158l69 -155h-107l-41 89l-41 -89h-107z" />
    <glyph glyph-name="gcircumflex" unicode="&#x11d;" horiz-adv-x="598" 
d="M297 252v148h272v-52q0 -168 -69.5 -263t-202.5 -95t-202 95t-69 263q0 167 69 260t202 93q179 0 242 -165l-193 -72q6 10 -2 33q-14 39 -47 39q-64 0 -64 -188q0 -193 64 -193q46 0 60 104h-27q-27 0 -33 -7zM148 742l69 155h158l69 -155h-107l-41 89l-41 -89h-107z" />
    <glyph glyph-name="Gbreve" unicode="&#x11e;" horiz-adv-x="598" 
d="M297 252v148h272v-52q0 -168 -69.5 -263t-202.5 -95t-202 95t-69 263q0 167 69 260t202 93q179 0 242 -165l-193 -72q6 10 -2 33q-14 39 -47 39q-64 0 -64 -188q0 -193 64 -193q46 0 60 104h-27q-27 0 -33 -7zM147 907h72q11 -33 29 -45t48 -12t48 12t28 45h72
q-4 -70 -44.5 -113t-103.5 -43t-103.5 43t-45.5 113z" />
    <glyph glyph-name="gbreve" unicode="&#x11f;" horiz-adv-x="598" 
d="M297 252v148h272v-52q0 -168 -69.5 -263t-202.5 -95t-202 95t-69 263q0 167 69 260t202 93q179 0 242 -165l-193 -72q6 10 -2 33q-14 39 -47 39q-64 0 -64 -188q0 -193 64 -193q46 0 60 104h-27q-27 0 -33 -7zM147 907h72q11 -33 29 -45t48 -12t48 12t28 45h72
q-4 -70 -44.5 -113t-103.5 -43t-103.5 43t-45.5 113z" />
    <glyph glyph-name="Gdotaccent" unicode="&#x120;" horiz-adv-x="598" 
d="M297 252v148h272v-52q0 -168 -69.5 -263t-202.5 -95t-202 95t-69 263q0 167 69 260t202 93q179 0 242 -165l-193 -72q6 10 -2 33q-14 39 -47 39q-64 0 -64 -188q0 -193 64 -193q46 0 60 104h-27q-27 0 -33 -7zM222 817q0 31 21.5 53t52.5 22t53 -22t22 -53t-22 -52.5
t-53 -21.5t-52.5 21.5t-21.5 52.5z" />
    <glyph glyph-name="gdotaccent" unicode="&#x121;" horiz-adv-x="598" 
d="M297 252v148h272v-52q0 -168 -69.5 -263t-202.5 -95t-202 95t-69 263q0 167 69 260t202 93q179 0 242 -165l-193 -72q6 10 -2 33q-14 39 -47 39q-64 0 -64 -188q0 -193 64 -193q46 0 60 104h-27q-27 0 -33 -7zM222 817q0 31 21.5 53t52.5 22t53 -22t22 -53t-22 -52.5
t-53 -21.5t-52.5 21.5t-21.5 52.5z" />
    <glyph glyph-name="Gcommaaccent" unicode="&#x122;" horiz-adv-x="598" 
d="M297 252v148h272v-52q0 -168 -69.5 -263t-202.5 -95t-202 95t-69 263q0 167 69 260t202 93q179 0 242 -165l-193 -72q6 10 -2 33q-14 39 -47 39q-64 0 -64 -188q0 -193 64 -193q46 0 60 104h-27q-27 0 -33 -7zM216 -194l-11 72q30 0 44.5 20.5t14.5 53.5h109
q0 -57 -37 -101.5t-120 -44.5z" />
    <glyph glyph-name="gcommaaccent" unicode="&#x123;" horiz-adv-x="598" 
d="M297 252v148h272v-52q0 -168 -69.5 -263t-202.5 -95t-202 95t-69 263q0 167 69 260t202 93q179 0 242 -165l-193 -72q6 10 -2 33q-14 39 -47 39q-64 0 -64 -188q0 -193 64 -193q46 0 60 104h-27q-27 0 -33 -7zM216 -194l-11 72q30 0 44.5 20.5t14.5 53.5h109
q0 -57 -37 -101.5t-120 -44.5z" />
    <glyph glyph-name="Hcircumflex" unicode="&#x124;" 
d="M39 33v625q0 27 -7 33h211q-7 -6 -7 -33v-234h78v234q0 27 -7 33h211q-7 -6 -7 -33v-625q0 -27 7 -33h-211q7 6 7 33v245h-78v-245q0 -27 7 -33h-211q7 6 7 33zM127 742l69 155h158l69 -155h-107l-41 89l-41 -89h-107z" />
    <glyph glyph-name="hcircumflex" unicode="&#x125;" 
d="M39 33v625q0 27 -7 33h211q-7 -6 -7 -33v-234h78v234q0 27 -7 33h211q-7 -6 -7 -33v-625q0 -27 7 -33h-211q7 6 7 33v245h-78v-245q0 -27 7 -33h-211q7 6 7 33zM127 742l69 155h158l69 -155h-107l-41 89l-41 -89h-107z" />
    <glyph glyph-name="Hbar" unicode="&#x126;" 
d="M39 33v471h-47v97h47v57q0 27 -7 33h211q-7 -6 -7 -33v-57h78v57q0 27 -7 33h211q-7 -6 -7 -33v-57h47v-97h-47v-471q0 -27 7 -33h-211q7 6 7 33v245h-78v-245q0 -27 7 -33h-211q7 6 7 33zM236 424h78v80h-78v-80z" />
    <glyph glyph-name="hbar" unicode="&#x127;" 
d="M39 33v471h-47v97h47v57q0 27 -7 33h211q-7 -6 -7 -33v-57h78v57q0 27 -7 33h211q-7 -6 -7 -33v-57h47v-97h-47v-471q0 -27 7 -33h-211q7 6 7 33v245h-78v-245q0 -27 7 -33h-211q7 6 7 33zM236 424h78v80h-78v-80z" />
    <glyph glyph-name="Itilde" unicode="&#x128;" horiz-adv-x="275" 
d="M39 33v625q0 27 -7 33h211q-7 -6 -7 -33v-625q0 -27 7 -33h-211q7 6 7 33zM-39 749v16q0 50 30 86t80 36q31 0 69.5 -17t53.5 -17q37 0 37 36h83v-16q0 -50 -30 -86t-80 -36q-31 0 -69.5 17t-53.5 17q-36 0 -36 -36h-84z" />
    <glyph glyph-name="itilde" unicode="&#x129;" horiz-adv-x="275" 
d="M39 33v625q0 27 -7 33h211q-7 -6 -7 -33v-625q0 -27 7 -33h-211q7 6 7 33zM-39 749v16q0 50 30 86t80 36q31 0 69.5 -17t53.5 -17q37 0 37 36h83v-16q0 -50 -30 -86t-80 -36q-31 0 -69.5 17t-53.5 17q-36 0 -36 -36h-84z" />
    <glyph glyph-name="Imacron" unicode="&#x12a;" horiz-adv-x="275" 
d="M39 33v625q0 27 -7 33h211q-7 -6 -7 -33v-625q0 -27 7 -33h-211q7 6 7 33zM-9 780v97h283v-97h-283z" />
    <glyph glyph-name="imacron" unicode="&#x12b;" horiz-adv-x="275" 
d="M39 33v625q0 27 -7 33h211q-7 -6 -7 -33v-625q0 -27 7 -33h-211q7 6 7 33zM-9 780v97h283v-97h-283z" />
    <glyph glyph-name="Ibreve" unicode="&#x12c;" horiz-adv-x="275" 
d="M39 33v625q0 27 -7 33h211q-7 -6 -7 -33v-625q0 -27 7 -33h-211q7 6 7 33zM-9 780v97h283v-97h-283z" />
    <glyph glyph-name="ibreve" unicode="&#x12d;" horiz-adv-x="275" 
d="M39 33v625q0 27 -7 33h211q-7 -6 -7 -33v-625q0 -27 7 -33h-211q7 6 7 33zM-11 907h72q11 -33 29 -45t48 -12t48 12t28 45h72q-4 -70 -44.5 -113t-103.5 -43t-103.5 43t-45.5 113z" />
    <glyph glyph-name="Iogonek" unicode="&#x12e;" horiz-adv-x="275" 
d="M39 33v625q0 27 -7 33h211q-7 -6 -7 -33v-625q0 -27 7 -33h-64q-38 -34 -38 -71q0 -19 12.5 -29.5t32.5 -10.5q17 0 38 7l-8 -79q-21 -10 -46 -10q-47 0 -83 23t-36 68q0 55 59 102h-78q7 6 7 33z" />
    <glyph glyph-name="iogonek" unicode="&#x12f;" horiz-adv-x="275" 
d="M39 33v625q0 27 -7 33h211q-7 -6 -7 -33v-625q0 -27 7 -33h-64q-38 -34 -38 -71q0 -19 12.5 -29.5t32.5 -10.5q17 0 38 7l-8 -79q-21 -10 -46 -10q-47 0 -83 23t-36 68q0 55 59 102h-78q7 6 7 33z" />
    <glyph glyph-name="Idotaccent" unicode="&#x130;" horiz-adv-x="275" 
d="M39 33v625q0 27 -7 33h211q-7 -6 -7 -33v-625q0 -27 7 -33h-211q7 6 7 33zM63 817q0 31 21.5 53t52.5 22t53 -22t22 -53t-22 -52.5t-53 -21.5t-52.5 21.5t-21.5 52.5z" />
    <glyph glyph-name="IJ" unicode="&#x132;" horiz-adv-x="660" 
d="M39 33v625q0 27 -7 33h211q-7 -6 -7 -33v-625q0 -27 7 -33h-211q7 6 7 33zM295 -1v192q38 -36 75 -36q32 0 44.5 25t12.5 80v398q0 27 -7 33h211q-7 -6 -7 -33v-435q0 -34 -4.5 -63.5t-18 -62t-35 -55t-59 -37.5t-86.5 -15q-66 0 -98 11q-9 3 -15 3q-3 0 -13 -5z" />
    <glyph glyph-name="ij" unicode="&#x133;" horiz-adv-x="660" 
d="M39 33v625q0 27 -7 33h211q-7 -6 -7 -33v-625q0 -27 7 -33h-211q7 6 7 33zM295 -1v192q38 -36 75 -36q32 0 44.5 25t12.5 80v398q0 27 -7 33h211q-7 -6 -7 -33v-435q0 -34 -4.5 -63.5t-18 -62t-35 -55t-59 -37.5t-86.5 -15q-66 0 -98 11q-9 3 -15 3q-3 0 -13 -5z" />
    <glyph glyph-name="Jcircumflex" unicode="&#x134;" horiz-adv-x="385" 
d="M103 742l69 155h158l69 -155h-107l-41 89l-41 -89h-107zM20 -1v192q38 -36 75 -36q32 0 44.5 25t12.5 80v398q0 27 -7 33h211q-7 -6 -7 -33v-435q0 -34 -4.5 -63.5t-18 -62t-35 -55t-59 -37.5t-86.5 -15q-66 0 -98 11q-9 3 -15 3q-3 0 -13 -5z" />
    <glyph glyph-name="jcircumflex" unicode="&#x135;" horiz-adv-x="385" 
d="M103 742l69 155h158l69 -155h-107l-41 89l-41 -89h-107zM20 -1v192q38 -36 75 -36q32 0 44.5 25t12.5 80v398q0 27 -7 33h211q-7 -6 -7 -33v-435q0 -34 -4.5 -63.5t-18 -62t-35 -55t-59 -37.5t-86.5 -15q-66 0 -98 11q-9 3 -15 3q-3 0 -13 -5z" />
    <glyph glyph-name="Kcommaaccent" unicode="&#x136;" horiz-adv-x="568" 
d="M39 33v625q0 27 -7 33h211q-7 -6 -7 -33v-239l112 239q11 22 4 33h206q-12 -7 -23 -33l-128 -273l134 -352q12 -28 20 -33h-216q8 13 -1 33l-108 283v-283q0 -27 7 -33h-211q7 6 7 33zM194 -194l-11 72q30 0 44.5 20.5t14.5 53.5h109q0 -57 -37 -101.5t-120 -44.5z" />
    <glyph glyph-name="kcommaaccent" unicode="&#x137;" horiz-adv-x="568" 
d="M39 33v625q0 27 -7 33h211q-7 -6 -7 -33v-239l112 239q11 22 4 33h206q-12 -7 -23 -33l-128 -273l134 -352q12 -28 20 -33h-216q8 13 -1 33l-108 283v-283q0 -27 7 -33h-211q7 6 7 33zM194 -194l-11 72q30 0 44.5 20.5t14.5 53.5h109q0 -57 -37 -101.5t-120 -44.5z" />
    <glyph glyph-name="Lacute" unicode="&#x139;" horiz-adv-x="399" 
d="M39 33v625q0 27 -7 33h211q-7 -6 -7 -33v-503h120q27 0 33 7v-162h-357q7 6 7 33zM81 742l49 155h143l-91 -155h-101z" />
    <glyph glyph-name="lacute" unicode="&#x13a;" horiz-adv-x="399" 
d="M39 33v625q0 27 -7 33h211q-7 -6 -7 -33v-503h120q27 0 33 7v-162h-357q7 6 7 33zM81 742l49 155h143l-91 -155h-101z" />
    <glyph glyph-name="Lcommaaccent" unicode="&#x13b;" horiz-adv-x="399" 
d="M39 33v625q0 27 -7 33h211q-7 -6 -7 -33v-503h120q27 0 33 7v-162h-357q7 6 7 33zM127 -194l-11 72q30 0 44.5 20.5t14.5 53.5h109q0 -57 -37 -101.5t-120 -44.5z" />
    <glyph glyph-name="lcommaaccent" unicode="&#x13c;" horiz-adv-x="399" 
d="M39 33v625q0 27 -7 33h211q-7 -6 -7 -33v-503h120q27 0 33 7v-162h-357q7 6 7 33zM127 -194l-11 72q30 0 44.5 20.5t14.5 53.5h109q0 -57 -37 -101.5t-120 -44.5z" />
    <glyph glyph-name="Lcaron" unicode="&#x13d;" horiz-adv-x="399" 
d="M39 33v625q0 27 -7 33h211q-7 -6 -7 -33v-503h120q27 0 33 7v-162h-357q7 6 7 33zM267 518l19 206h125l-50 -206h-94z" />
    <glyph glyph-name="lcaron" unicode="&#x13e;" horiz-adv-x="399" 
d="M39 33v625q0 27 -7 33h211q-7 -6 -7 -33v-503h120q27 0 33 7v-162h-357q7 6 7 33zM267 518l19 206h125l-50 -206h-94z" />
    <glyph glyph-name="Ldot" unicode="&#x13f;" horiz-adv-x="520" 
d="M39 33v625q0 27 -7 33h211q-7 -6 -7 -33v-503h120q27 0 33 7v-162h-357q7 6 7 33zM295 413q0 44 30.5 74.5t73.5 30.5t74 -31t31 -74t-30.5 -73.5t-74.5 -30.5q-43 0 -73.5 30.5t-30.5 73.5z" />
    <glyph glyph-name="ldot" unicode="&#x140;" horiz-adv-x="520" 
d="M39 33v625q0 27 -7 33h211q-7 -6 -7 -33v-503h120q27 0 33 7v-162h-357q7 6 7 33zM295 413q0 44 30.5 74.5t73.5 30.5t74 -31t31 -74t-30.5 -73.5t-74.5 -30.5q-43 0 -73.5 30.5t-30.5 73.5z" />
    <glyph glyph-name="Lslash" unicode="&#x141;" horiz-adv-x="423" 
d="M63 33v153l-61 -38v137l61 38v335q0 27 -7 33h211q-7 -6 -7 -33v-209l68 43v-139l-68 -43v-155h120q27 0 33 7v-162h-357q7 6 7 33z" />
    <glyph glyph-name="lslash" unicode="&#x142;" horiz-adv-x="423" 
d="M63 33v153l-61 -38v137l61 38v335q0 27 -7 33h211q-7 -6 -7 -33v-209l68 43v-139l-68 -43v-155h120q27 0 33 7v-162h-357q7 6 7 33z" />
    <glyph glyph-name="Nacute" unicode="&#x143;" horiz-adv-x="561" 
d="M39 33v625q0 27 -7 33h201l-2 -2q-3 -6 6 -31l98 -262v262q0 27 -7 33h201q-7 -6 -7 -33v-625q0 -27 7 -33h-201l1 1q3 4 -5 32l-98 262v-262q0 -27 7 -33h-201q7 6 7 33zM227 742l49 155h143l-91 -155h-101z" />
    <glyph glyph-name="nacute" unicode="&#x144;" horiz-adv-x="561" 
d="M39 33v625q0 27 -7 33h201l-2 -2q-3 -6 6 -31l98 -262v262q0 27 -7 33h201q-7 -6 -7 -33v-625q0 -27 7 -33h-201l1 1q3 4 -5 32l-98 262v-262q0 -27 7 -33h-201q7 6 7 33zM227 742l49 155h143l-91 -155h-101z" />
    <glyph glyph-name="Ncommaaccent" unicode="&#x145;" horiz-adv-x="561" 
d="M39 33v625q0 27 -7 33h201l-2 -2q-3 -6 6 -31l98 -262v262q0 27 -7 33h201q-7 -6 -7 -33v-625q0 -27 7 -33h-201l1 1q3 4 -5 32l-98 262v-262q0 -27 7 -33h-201q7 6 7 33zM187 -194l-11 72q30 0 44.5 20.5t14.5 53.5h109q0 -57 -37 -101.5t-120 -44.5z" />
    <glyph glyph-name="ncommaaccent" unicode="&#x146;" horiz-adv-x="561" 
d="M39 33v625q0 27 -7 33h201l-2 -2q-3 -6 6 -31l98 -262v262q0 27 -7 33h201q-7 -6 -7 -33v-625q0 -27 7 -33h-201l1 1q3 4 -5 32l-98 262v-262q0 -27 7 -33h-201q7 6 7 33zM187 -194l-11 72q30 0 44.5 20.5t14.5 53.5h109q0 -57 -37 -101.5t-120 -44.5z" />
    <glyph glyph-name="Ncaron" unicode="&#x147;" horiz-adv-x="561" 
d="M39 33v625q0 27 -7 33h201l-2 -2q-3 -6 6 -31l98 -262v262q0 27 -7 33h201q-7 -6 -7 -33v-625q0 -27 7 -33h-201l1 1q3 4 -5 32l-98 262v-262q0 -27 7 -33h-201q7 6 7 33zM201 741l-69 155h107l41 -89l41 89h107l-69 -155h-158z" />
    <glyph glyph-name="ncaron" unicode="&#x148;" horiz-adv-x="561" 
d="M39 33v625q0 27 -7 33h201l-2 -2q-3 -6 6 -31l98 -262v262q0 27 -7 33h201q-7 -6 -7 -33v-625q0 -27 7 -33h-201l1 1q3 4 -5 32l-98 262v-262q0 -27 7 -33h-201q7 6 7 33zM201 741l-69 155h107l41 -89l41 89h107l-69 -155h-158z" />
    <glyph glyph-name="napostrophe" unicode="&#x149;" horiz-adv-x="763" 
d="M0 450l62 241h144l-97 -241h-109zM241 33v625q0 27 -7 33h201l-2 -2q-3 -6 6 -31l98 -262v262q0 27 -7 33h201q-7 -6 -7 -33v-625q0 -27 7 -33h-201l1 1q3 4 -5 32l-98 262v-262q0 -27 7 -33h-201q7 6 7 33z" />
    <glyph glyph-name="Eng" unicode="&#x14a;" horiz-adv-x="561" 
d="M193 -224v192q38 -36 75 -36q31 0 43.5 23t13.5 73q-1 2 -1 5l-98 262v-262q0 -27 7 -33h-201q7 6 7 33v625q0 27 -7 33h201l-2 -2q-3 -6 6 -31l98 -262v262q0 27 -7 33h201q-7 -6 -7 -33v-658q0 -34 -4.5 -63.5t-18 -62t-35 -55t-59 -37.5t-86.5 -15q-66 0 -98 11
q-9 3 -15 3q-3 0 -13 -5z" />
    <glyph glyph-name="eng" unicode="&#x14b;" horiz-adv-x="561" 
d="M193 -224v192q38 -36 75 -36q31 0 43.5 23t13.5 73q-1 2 -1 5l-98 262v-262q0 -27 7 -33h-201q7 6 7 33v625q0 27 -7 33h201l-2 -2q-3 -6 6 -31l98 -262v262q0 27 -7 33h201q-7 -6 -7 -33v-658q0 -34 -4.5 -63.5t-18 -62t-35 -55t-59 -37.5t-86.5 -15q-66 0 -98 11
q-9 3 -15 3q-3 0 -13 -5z" />
    <glyph glyph-name="Omacron" unicode="&#x14c;" horiz-adv-x="595" 
d="M297 -10q-133 0 -202 95t-69 263q0 167 69 260t202 93q134 0 203 -93t69 -260q0 -168 -69.5 -263t-202.5 -95zM297 155q65 0 65 193q0 188 -65 188q-64 0 -64 -188q0 -193 64 -193zM151 780v97h283v-97h-283z" />
    <glyph glyph-name="omacron" unicode="&#x14d;" horiz-adv-x="595" 
d="M297 -10q-133 0 -202 95t-69 263q0 167 69 260t202 93q134 0 203 -93t69 -260q0 -168 -69.5 -263t-202.5 -95zM297 155q65 0 65 193q0 188 -65 188q-64 0 -64 -188q0 -193 64 -193zM151 780v97h283v-97h-283z" />
    <glyph glyph-name="Obreve" unicode="&#x14e;" horiz-adv-x="595" 
d="M297 -10q-133 0 -202 95t-69 263q0 167 69 260t202 93q134 0 203 -93t69 -260q0 -168 -69.5 -263t-202.5 -95zM297 155q65 0 65 193q0 188 -65 188q-64 0 -64 -188q0 -193 64 -193zM148 907h72q11 -33 29 -45t48 -12t48 12t28 45h72q-4 -70 -44.5 -113t-103.5 -43
t-103.5 43t-45.5 113z" />
    <glyph glyph-name="obreve" unicode="&#x14f;" horiz-adv-x="595" 
d="M297 -10q-133 0 -202 95t-69 263q0 167 69 260t202 93q134 0 203 -93t69 -260q0 -168 -69.5 -263t-202.5 -95zM297 155q65 0 65 193q0 188 -65 188q-64 0 -64 -188q0 -193 64 -193zM148 907h72q11 -33 29 -45t48 -12t48 12t28 45h72q-4 -70 -44.5 -113t-103.5 -43
t-103.5 43t-45.5 113z" />
    <glyph glyph-name="Ohungarumlaut" unicode="&#x150;" horiz-adv-x="595" 
d="M297 -10q-133 0 -202 95t-69 263q0 167 69 260t202 93q134 0 203 -93t69 -260q0 -168 -69.5 -263t-202.5 -95zM297 155q65 0 65 193q0 188 -65 188q-64 0 -64 -188q0 -193 64 -193zM139 742l49 155h143l-91 -155h-101zM324 742l48 155h144l-91 -155h-101z" />
    <glyph glyph-name="ohungarumlaut" unicode="&#x151;" horiz-adv-x="595" 
d="M297 -10q-133 0 -202 95t-69 263q0 167 69 260t202 93q134 0 203 -93t69 -260q0 -168 -69.5 -263t-202.5 -95zM297 155q65 0 65 193q0 188 -65 188q-64 0 -64 -188q0 -193 64 -193zM139 742l49 155h143l-91 -155h-101zM324 742l48 155h144l-91 -155h-101z" />
    <glyph glyph-name="OE" unicode="&#x152;" horiz-adv-x="708" 
d="M688 0h-313q-40 -10 -78 -10q-133 0 -202 95t-69 263q0 167 69 260t202 93q39 0 79 -10h312v-166q-6 7 -33 7h-120v-108h105q27 0 33 7v-155q-6 7 -33 7h-105v-118h120q27 0 33 7v-172zM342 188v314q-15 34 -45 34q-64 0 -64 -188q0 -193 64 -193q30 0 45 33z" />
    <glyph glyph-name="oe" unicode="&#x153;" horiz-adv-x="708" 
d="M688 0h-313q-40 -10 -78 -10q-133 0 -202 95t-69 263q0 167 69 260t202 93q39 0 79 -10h312v-166q-6 7 -33 7h-120v-108h105q27 0 33 7v-155q-6 7 -33 7h-105v-118h120q27 0 33 7v-172zM342 188v314q-15 34 -45 34q-64 0 -64 -188q0 -193 64 -193q30 0 45 33z" />
    <glyph glyph-name="Racute" unicode="&#x154;" horiz-adv-x="568" 
d="M39 33v625q0 27 -7 33h233q252 0 252 -212q0 -128 -98 -175l120 -271q18 -31 22 -33h-216q8 14 -3 33l-104 250h-2v-250q0 -27 7 -33h-211q7 6 7 33zM238 406h16q25 0 41.5 19.5t16.5 52.5t-16.5 52.5t-41.5 19.5h-16v-144zM193 742l49 155h143l-91 -155h-101z" />
    <glyph glyph-name="racute" unicode="&#x155;" horiz-adv-x="568" 
d="M39 33v625q0 27 -7 33h233q252 0 252 -212q0 -128 -98 -175l120 -271q18 -31 22 -33h-216q8 14 -3 33l-104 250h-2v-250q0 -27 7 -33h-211q7 6 7 33zM238 406h16q25 0 41.5 19.5t16.5 52.5t-16.5 52.5t-41.5 19.5h-16v-144zM193 742l49 155h143l-91 -155h-101z" />
    <glyph glyph-name="Rcommaaccent" unicode="&#x156;" horiz-adv-x="568" 
d="M39 33v625q0 27 -7 33h233q252 0 252 -212q0 -128 -98 -175l120 -271q18 -31 22 -33h-216q8 14 -3 33l-104 250h-2v-250q0 -27 7 -33h-211q7 6 7 33zM238 406h16q25 0 41.5 19.5t16.5 52.5t-16.5 52.5t-41.5 19.5h-16v-144zM194 -194l-11 72q30 0 44.5 20.5t14.5 53.5
h109q0 -57 -37 -101.5t-120 -44.5z" />
    <glyph glyph-name="rcommaaccent" unicode="&#x157;" horiz-adv-x="568" 
d="M39 33v625q0 27 -7 33h233q252 0 252 -212q0 -128 -98 -175l120 -271q18 -31 22 -33h-216q8 14 -3 33l-104 250h-2v-250q0 -27 7 -33h-211q7 6 7 33zM238 406h16q25 0 41.5 19.5t16.5 52.5t-16.5 52.5t-41.5 19.5h-16v-144zM194 -194l-11 72q30 0 44.5 20.5t14.5 53.5
h109q0 -57 -37 -101.5t-120 -44.5z" />
    <glyph glyph-name="Rcaron" unicode="&#x158;" horiz-adv-x="568" 
d="M39 33v625q0 27 -7 33h233q252 0 252 -212q0 -128 -98 -175l120 -271q18 -31 22 -33h-216q8 14 -3 33l-104 250h-2v-250q0 -27 7 -33h-211q7 6 7 33zM238 406h16q25 0 41.5 19.5t16.5 52.5t-16.5 52.5t-41.5 19.5h-16v-144zM183 741l-69 155h107l41 -89l41 89h107
l-69 -155h-158z" />
    <glyph glyph-name="rcaron" unicode="&#x159;" horiz-adv-x="568" 
d="M39 33v625q0 27 -7 33h233q252 0 252 -212q0 -128 -98 -175l120 -271q18 -31 22 -33h-216q8 14 -3 33l-104 250h-2v-250q0 -27 7 -33h-211q7 6 7 33zM238 406h16q25 0 41.5 19.5t16.5 52.5t-16.5 52.5t-41.5 19.5h-16v-144zM183 741l-69 155h107l41 -89l41 89h107
l-69 -155h-158z" />
    <glyph glyph-name="Sacute" unicode="&#x15a;" horiz-adv-x="465" 
d="M24 15v198q79 -60 154 -60q29 0 45 14t16 35q0 22 -12 40t-41 40q-8 6 -34.5 27t-34 27.5t-26.5 25t-25.5 31t-16.5 32t-13.5 41.5t-3.5 48q0 82 59.5 134.5t156.5 52.5q67 0 126 -19q11 -4 17 -4l13 5v-178q-56 37 -108 37q-30 0 -45.5 -12t-15.5 -31q0 -26 62 -71
q48 -37 74 -61.5t48 -66t22 -89.5q0 -99 -65.5 -160t-182.5 -61q-58 0 -139 26q-11 4 -17 4zM177 742l49 155h143l-91 -155h-101z" />
    <glyph glyph-name="sacute" unicode="&#x15b;" horiz-adv-x="465" 
d="M24 15v198q79 -60 154 -60q29 0 45 14t16 35q0 22 -12 40t-41 40q-8 6 -34.5 27t-34 27.5t-26.5 25t-25.5 31t-16.5 32t-13.5 41.5t-3.5 48q0 82 59.5 134.5t156.5 52.5q67 0 126 -19q11 -4 17 -4l13 5v-178q-56 37 -108 37q-30 0 -45.5 -12t-15.5 -31q0 -26 62 -71
q48 -37 74 -61.5t48 -66t22 -89.5q0 -99 -65.5 -160t-182.5 -61q-58 0 -139 26q-11 4 -17 4zM177 742l49 155h143l-91 -155h-101z" />
    <glyph glyph-name="Scircumflex" unicode="&#x15c;" horiz-adv-x="465" 
d="M24 15v198q79 -60 154 -60q29 0 45 14t16 35q0 22 -12 40t-41 40q-8 6 -34.5 27t-34 27.5t-26.5 25t-25.5 31t-16.5 32t-13.5 41.5t-3.5 48q0 82 59.5 134.5t156.5 52.5q67 0 126 -19q11 -4 17 -4l13 5v-178q-56 37 -108 37q-30 0 -45.5 -12t-15.5 -31q0 -26 62 -71
q48 -37 74 -61.5t48 -66t22 -89.5q0 -99 -65.5 -160t-182.5 -61q-58 0 -139 26q-11 4 -17 4zM84 742l69 155h158l69 -155h-107l-41 89l-41 -89h-107z" />
    <glyph glyph-name="scircumflex" unicode="&#x15d;" horiz-adv-x="465" 
d="M24 15v198q79 -60 154 -60q29 0 45 14t16 35q0 22 -12 40t-41 40q-8 6 -34.5 27t-34 27.5t-26.5 25t-25.5 31t-16.5 32t-13.5 41.5t-3.5 48q0 82 59.5 134.5t156.5 52.5q67 0 126 -19q11 -4 17 -4l13 5v-178q-56 37 -108 37q-30 0 -45.5 -12t-15.5 -31q0 -26 62 -71
q48 -37 74 -61.5t48 -66t22 -89.5q0 -99 -65.5 -160t-182.5 -61q-58 0 -139 26q-11 4 -17 4zM84 742l69 155h158l69 -155h-107l-41 89l-41 -89h-107z" />
    <glyph glyph-name="Scedilla" unicode="&#x15e;" horiz-adv-x="465" 
d="M24 15v198q79 -60 154 -60q29 0 45 14t16 35q0 22 -12 40t-41 40q-8 6 -34.5 27t-34 27.5t-26.5 25t-25.5 31t-16.5 32t-13.5 41.5t-3.5 48q0 82 59.5 134.5t156.5 52.5q67 0 126 -19q11 -4 17 -4l13 5v-178q-56 37 -108 37q-30 0 -45.5 -12t-15.5 -31q0 -26 62 -71
q48 -37 74 -61.5t48 -66t22 -89.5q0 -99 -65.5 -160t-182.5 -61q-58 0 -139 26q-11 4 -17 4zM144 -194l-11 72q30 0 44.5 20.5t14.5 53.5h109q0 -57 -37 -101.5t-120 -44.5z" />
    <glyph glyph-name="scedilla" unicode="&#x15f;" horiz-adv-x="465" 
d="M24 15v198q79 -60 154 -60q29 0 45 14t16 35q0 22 -12 40t-41 40q-8 6 -34.5 27t-34 27.5t-26.5 25t-25.5 31t-16.5 32t-13.5 41.5t-3.5 48q0 82 59.5 134.5t156.5 52.5q67 0 126 -19q11 -4 17 -4l13 5v-178q-56 37 -108 37q-30 0 -45.5 -12t-15.5 -31q0 -26 62 -71
q48 -37 74 -61.5t48 -66t22 -89.5q0 -99 -65.5 -160t-182.5 -61q-58 0 -139 26q-11 4 -17 4zM144 -194l-11 72q30 0 44.5 20.5t14.5 53.5h109q0 -57 -37 -101.5t-120 -44.5z" />
    <glyph glyph-name="Scaron" unicode="&#x160;" horiz-adv-x="465" 
d="M24 15v198q79 -60 154 -60q29 0 45 14t16 35q0 22 -12 40t-41 40q-8 6 -34.5 27t-34 27.5t-26.5 25t-25.5 31t-16.5 32t-13.5 41.5t-3.5 48q0 82 59.5 134.5t156.5 52.5q67 0 126 -19q11 -4 17 -4l13 5v-178q-56 37 -108 37q-30 0 -45.5 -12t-15.5 -31q0 -26 62 -71
q48 -37 74 -61.5t48 -66t22 -89.5q0 -99 -65.5 -160t-182.5 -61q-58 0 -139 26q-11 4 -17 4zM153 741l-69 155h107l41 -89l41 89h107l-69 -155h-158z" />
    <glyph glyph-name="scaron" unicode="&#x161;" horiz-adv-x="465" 
d="M24 15v198q79 -60 154 -60q29 0 45 14t16 35q0 22 -12 40t-41 40q-8 6 -34.5 27t-34 27.5t-26.5 25t-25.5 31t-16.5 32t-13.5 41.5t-3.5 48q0 82 59.5 134.5t156.5 52.5q67 0 126 -19q11 -4 17 -4l13 5v-178q-56 37 -108 37q-30 0 -45.5 -12t-15.5 -31q0 -26 62 -71
q48 -37 74 -61.5t48 -66t22 -89.5q0 -99 -65.5 -160t-182.5 -61q-58 0 -139 26q-11 4 -17 4zM153 741l-69 155h107l41 -89l41 89h107l-69 -155h-158z" />
    <glyph glyph-name="Tcedilla" unicode="&#x162;" horiz-adv-x="441" 
d="M122 33v499h-81q-27 0 -33 -7v166h425v-166q-6 7 -33 7h-81v-499q0 -27 7 -33h-211q7 6 7 33zM126 -194l-11 72q30 0 44.5 20.5t14.5 53.5h109q0 -57 -37 -101.5t-120 -44.5z" />
    <glyph glyph-name="tcedilla" unicode="&#x163;" horiz-adv-x="441" 
d="M122 33v499h-81q-27 0 -33 -7v166h425v-166q-6 7 -33 7h-81v-499q0 -27 7 -33h-211q7 6 7 33zM126 -194l-11 72q30 0 44.5 20.5t14.5 53.5h109q0 -57 -37 -101.5t-120 -44.5z" />
    <glyph glyph-name="Tcaron" unicode="&#x164;" horiz-adv-x="441" 
d="M122 33v499h-81q-27 0 -33 -7v166h425v-166q-6 7 -33 7h-81v-499q0 -27 7 -33h-211q7 6 7 33zM141 741l-69 155h107l41 -89l41 89h107l-69 -155h-158z" />
    <glyph glyph-name="tcaron" unicode="&#x165;" horiz-adv-x="441" 
d="M122 33v499h-81q-27 0 -33 -7v166h425v-166q-6 7 -33 7h-81v-499q0 -27 7 -33h-211q7 6 7 33zM141 741l-69 155h107l41 -89l41 89h107l-69 -155h-158z" />
    <glyph glyph-name="Tbar" unicode="&#x166;" horiz-adv-x="441" 
d="M122 33v265h-72v97h72v137h-81q-27 0 -33 -7v166h425v-166q-6 7 -33 7h-81v-137h71v-97h-71v-265q0 -27 7 -33h-211q7 6 7 33z" />
    <glyph glyph-name="tbar" unicode="&#x167;" horiz-adv-x="441" 
d="M122 33v265h-72v97h72v137h-81q-27 0 -33 -7v166h425v-166q-6 7 -33 7h-81v-137h71v-97h-71v-265q0 -27 7 -33h-211q7 6 7 33z" />
    <glyph glyph-name="Utilde" unicode="&#x168;" horiz-adv-x="564" 
d="M36 221v437q0 27 -7 33h211q-7 -6 -7 -33v-442q0 -30 13.5 -45.5t35.5 -15.5q20 0 34 14t15 41v448q0 27 -7 33h211q-7 -6 -7 -33v-437q0 -106 -60 -168.5t-186 -62.5q-124 0 -185 63t-61 168zM105 749v16q0 50 30 86t80 36q31 0 69.5 -17t53.5 -17q37 0 37 36h83v-16
q0 -50 -30 -86t-80 -36q-31 0 -69.5 17t-53.5 17q-36 0 -36 -36h-84z" />
    <glyph glyph-name="utilde" unicode="&#x169;" horiz-adv-x="564" 
d="M36 221v437q0 27 -7 33h211q-7 -6 -7 -33v-442q0 -30 13.5 -45.5t35.5 -15.5q20 0 34 14t15 41v448q0 27 -7 33h211q-7 -6 -7 -33v-437q0 -106 -60 -168.5t-186 -62.5q-124 0 -185 63t-61 168zM105 749v16q0 50 30 86t80 36q31 0 69.5 -17t53.5 -17q37 0 37 36h83v-16
q0 -50 -30 -86t-80 -36q-31 0 -69.5 17t-53.5 17q-36 0 -36 -36h-84z" />
    <glyph glyph-name="Umacron" unicode="&#x16a;" horiz-adv-x="564" 
d="M36 221v437q0 27 -7 33h211q-7 -6 -7 -33v-442q0 -30 13.5 -45.5t35.5 -15.5q20 0 34 14t15 41v448q0 27 -7 33h211q-7 -6 -7 -33v-437q0 -106 -60 -168.5t-186 -62.5q-124 0 -185 63t-61 168zM135 780v97h283v-97h-283z" />
    <glyph glyph-name="umacron" unicode="&#x16b;" horiz-adv-x="564" 
d="M36 221v437q0 27 -7 33h211q-7 -6 -7 -33v-442q0 -30 13.5 -45.5t35.5 -15.5q20 0 34 14t15 41v448q0 27 -7 33h211q-7 -6 -7 -33v-437q0 -106 -60 -168.5t-186 -62.5q-124 0 -185 63t-61 168zM135 780v97h283v-97h-283z" />
    <glyph glyph-name="Ubreve" unicode="&#x16c;" horiz-adv-x="564" 
d="M36 221v437q0 27 -7 33h211q-7 -6 -7 -33v-442q0 -30 13.5 -45.5t35.5 -15.5q20 0 34 14t15 41v448q0 27 -7 33h211q-7 -6 -7 -33v-437q0 -106 -60 -168.5t-186 -62.5q-124 0 -185 63t-61 168zM133 907h72q11 -33 29 -45t48 -12t48 12t28 45h72q-4 -70 -44.5 -113
t-103.5 -43t-103.5 43t-45.5 113z" />
    <glyph glyph-name="ubreve" unicode="&#x16d;" horiz-adv-x="564" 
d="M36 221v437q0 27 -7 33h211q-7 -6 -7 -33v-442q0 -30 13.5 -45.5t35.5 -15.5q20 0 34 14t15 41v448q0 27 -7 33h211q-7 -6 -7 -33v-437q0 -106 -60 -168.5t-186 -62.5q-124 0 -185 63t-61 168zM133 907h72q11 -33 29 -45t48 -12t48 12t28 45h72q-4 -70 -44.5 -113
t-103.5 -43t-103.5 43t-45.5 113z" />
    <glyph glyph-name="Uring" unicode="&#x16e;" horiz-adv-x="564" 
d="M36 221v437q0 27 -7 33h211q-7 -6 -7 -33v-442q0 -30 13.5 -45.5t35.5 -15.5q20 0 34 14t15 41v448q0 27 -7 33h211q-7 -6 -7 -33v-437q0 -106 -60 -168.5t-186 -62.5q-124 0 -185 63t-61 168zM174 818q0 45 31 76.5t77 31.5q45 0 76.5 -31.5t31.5 -76.5q0 -46 -31.5 -77
t-76.5 -31q-46 0 -77 31t-31 77zM233 818q0 -21 14 -35t35 -14q20 0 34.5 14t14.5 35q0 20 -14.5 34.5t-34.5 14.5q-21 0 -35 -14.5t-14 -34.5z" />
    <glyph glyph-name="uring" unicode="&#x16f;" horiz-adv-x="564" 
d="M36 221v437q0 27 -7 33h211q-7 -6 -7 -33v-442q0 -30 13.5 -45.5t35.5 -15.5q20 0 34 14t15 41v448q0 27 -7 33h211q-7 -6 -7 -33v-437q0 -106 -60 -168.5t-186 -62.5q-124 0 -185 63t-61 168zM174 818q0 45 31 76.5t77 31.5q45 0 76.5 -31.5t31.5 -76.5q0 -46 -31.5 -77
t-76.5 -31q-46 0 -77 31t-31 77zM233 818q0 -21 14 -35t35 -14q20 0 34.5 14t14.5 35q0 20 -14.5 34.5t-34.5 14.5q-21 0 -35 -14.5t-14 -34.5z" />
    <glyph glyph-name="Uhungarumlaut" unicode="&#x170;" horiz-adv-x="564" 
d="M36 221v437q0 27 -7 33h211q-7 -6 -7 -33v-442q0 -30 13.5 -45.5t35.5 -15.5q20 0 34 14t15 41v448q0 27 -7 33h211q-7 -6 -7 -33v-437q0 -106 -60 -168.5t-186 -62.5q-124 0 -185 63t-61 168zM123 742l49 155h143l-91 -155h-101zM308 742l48 155h144l-91 -155h-101z" />
    <glyph glyph-name="uhungarumlaut" unicode="&#x171;" horiz-adv-x="564" 
d="M36 221v437q0 27 -7 33h211q-7 -6 -7 -33v-442q0 -30 13.5 -45.5t35.5 -15.5q20 0 34 14t15 41v448q0 27 -7 33h211q-7 -6 -7 -33v-437q0 -106 -60 -168.5t-186 -62.5q-124 0 -185 63t-61 168zM123 742l49 155h143l-91 -155h-101zM308 742l48 155h144l-91 -155h-101z" />
    <glyph glyph-name="Uogonek" unicode="&#x172;" horiz-adv-x="564" 
d="M36 221v437q0 27 -7 33h211q-7 -6 -7 -33v-442q0 -30 13.5 -45.5t35.5 -15.5q20 0 34 14t15 41v448q0 27 -7 33h211q-7 -6 -7 -33v-437q0 -86 -39 -143.5t-121 -77.5q-37 -33 -37 -71q0 -19 12.5 -29.5t32.5 -10.5q17 0 38 7l-8 -79q-21 -10 -46 -10q-47 0 -83 23t-36 68
q0 49 47 92h-6q-124 0 -185 63t-61 168z" />
    <glyph glyph-name="uogonek" unicode="&#x173;" horiz-adv-x="564" 
d="M36 221v437q0 27 -7 33h211q-7 -6 -7 -33v-442q0 -30 13.5 -45.5t35.5 -15.5q20 0 34 14t15 41v448q0 27 -7 33h211q-7 -6 -7 -33v-437q0 -86 -39 -143.5t-121 -77.5q-37 -33 -37 -71q0 -19 12.5 -29.5t32.5 -10.5q17 0 38 7l-8 -79q-21 -10 -46 -10q-47 0 -83 23t-36 68
q0 49 47 92h-6q-124 0 -185 63t-61 168z" />
    <glyph glyph-name="Wcircumflex" unicode="&#x174;" horiz-adv-x="813" 
d="M148 33l-121 625q-7 29 -14 33h200q-5 -6 0 -33l48 -399l49 399q2 30 -1 33h195q-5 -6 0 -33l56 -414l51 414q2 30 -1 33h190q-9 -6 -13 -33l-122 -625q-5 -27 1 -33h-217q5 6 0 33l-44 228l-41 -228q-5 -27 1 -33h-217q6 8 0 33zM258 742l69 155h158l69 -155h-107
l-41 89l-41 -89h-107z" />
    <glyph glyph-name="wcircumflex" unicode="&#x175;" horiz-adv-x="813" 
d="M148 33l-121 625q-7 29 -14 33h200q-5 -6 0 -33l48 -399l49 399q2 30 -1 33h195q-5 -6 0 -33l56 -414l51 414q2 30 -1 33h190q-9 -6 -13 -33l-122 -625q-5 -27 1 -33h-217q5 6 0 33l-44 228l-41 -228q-5 -27 1 -33h-217q6 8 0 33zM258 742l69 155h158l69 -155h-107
l-41 89l-41 -89h-107z" />
    <glyph glyph-name="Ycircumflex" unicode="&#x176;" horiz-adv-x="545" 
d="M174 33v262l-149 363q-10 27 -21 33h216q-5 -9 2 -33l50 -155l51 155q7 24 2 33h216q-11 -6 -21 -33l-149 -363v-262q0 -27 7 -33h-211q7 6 7 33zM124 742l69 155h158l69 -155h-107l-41 89l-41 -89h-107z" />
    <glyph glyph-name="ycircumflex" unicode="&#x177;" horiz-adv-x="545" 
d="M174 33v262l-149 363q-10 27 -21 33h216q-5 -9 2 -33l50 -155l51 155q7 24 2 33h216q-11 -6 -21 -33l-149 -363v-262q0 -27 7 -33h-211q7 6 7 33zM124 742l69 155h158l69 -155h-107l-41 89l-41 -89h-107z" />
    <glyph glyph-name="Ydieresis" unicode="&#x178;" horiz-adv-x="545" 
d="M174 33v262l-149 363q-10 27 -21 33h216q-5 -9 2 -33l50 -155l51 155q7 24 2 33h216q-11 -6 -21 -33l-149 -363v-262q0 -27 7 -33h-211q7 6 7 33zM298 825q0 31 21.5 53t52.5 22t53 -22t22 -53t-22 -52.5t-53 -21.5t-52.5 21.5t-21.5 52.5zM97 825q0 31 21.5 53t52.5 22
t53 -22t22 -53t-22 -52.5t-53 -21.5t-52.5 21.5t-21.5 52.5z" />
    <glyph glyph-name="Zacute" unicode="&#x179;" horiz-adv-x="573" 
d="M25 0l248 532h-161q-27 0 -33 -7v166h470l-248 -526h199q27 0 33 7v-172h-508zM242 742l49 155h143l-91 -155h-101z" />
    <glyph glyph-name="zacute" unicode="&#x17a;" horiz-adv-x="573" 
d="M25 0l248 532h-161q-27 0 -33 -7v166h470l-248 -526h199q27 0 33 7v-172h-508zM242 742l49 155h143l-91 -155h-101z" />
    <glyph glyph-name="Zdotaccent" unicode="&#x17b;" horiz-adv-x="573" 
d="M25 0l248 532h-161q-27 0 -33 -7v166h470l-248 -526h199q27 0 33 7v-172h-508zM233 817q0 31 21.5 53t52.5 22t53 -22t22 -53t-22 -52.5t-53 -21.5t-52.5 21.5t-21.5 52.5z" />
    <glyph glyph-name="zdotaccent" unicode="&#x17c;" horiz-adv-x="573" 
d="M25 0l248 532h-161q-27 0 -33 -7v166h470l-248 -526h199q27 0 33 7v-172h-508zM233 817q0 31 21.5 53t52.5 22t53 -22t22 -53t-22 -52.5t-53 -21.5t-52.5 21.5t-21.5 52.5z" />
    <glyph glyph-name="Zcaron" unicode="&#x17d;" horiz-adv-x="573" 
d="M25 0l248 532h-161q-27 0 -33 -7v166h470l-248 -526h199q27 0 33 7v-172h-508zM228 741l-69 155h107l41 -89l41 89h107l-69 -155h-158z" />
    <glyph glyph-name="zcaron" unicode="&#x17e;" horiz-adv-x="573" 
d="M25 0l248 532h-161q-27 0 -33 -7v166h470l-248 -526h199q27 0 33 7v-172h-508zM228 741l-69 155h107l41 -89l41 89h107l-69 -155h-158z" />
    <glyph glyph-name="florin" unicode="&#x192;" horiz-adv-x="413" 
d="M24 -2l21 161q18 -17 40 -17q21 0 29 11t12 34l27 163h-57l17 104h58l19 110q8 47 17 75.5t27.5 56.5t50 40.5t78.5 12.5q22 0 47.5 -6t31.5 -6l10 4l-21 -161q-18 17 -40 17q-21 0 -29 -11t-12 -34l-17 -98h57l-18 -104h-56l-30 -175q-8 -47 -17.5 -75.5t-28 -56.5
t-50 -40.5t-77.5 -12.5q-22 0 -47.5 6t-31.5 6z" />
    <glyph glyph-name="Aringacute" unicode="&#x1fa;" 
d="M235 845l33 105h143l-70 -119q42 -34 42 -86q0 -31 -14 -54h15q-6 -7 1 -33l143 -625q7 -28 15 -33h-200q4 5 -1 33l-12 78h-112l-11 -78q-5 -28 1 -33h-201q6 5 13 33l140 625q7 27 -1 33h22q-14 23 -14 54q0 34 18.5 61.5t49.5 38.5zM237 238h73l-38 241zM226 745
q0 -21 14 -35t35 -14q20 0 34.5 14t14.5 35q0 20 -14.5 34.5t-34.5 14.5q-21 0 -35 -14.5t-14 -34.5z" />
    <glyph glyph-name="aringacute" unicode="&#x1fb;" 
d="M235 845l33 105h143l-70 -119q42 -34 42 -86q0 -31 -14 -54h15q-6 -7 1 -33l143 -625q7 -28 15 -33h-200q4 5 -1 33l-12 78h-112l-11 -78q-5 -28 1 -33h-201q6 5 13 33l140 625q7 27 -1 33h22q-14 23 -14 54q0 34 18.5 61.5t49.5 38.5zM237 238h73l-38 241zM226 745
q0 -21 14 -35t35 -14q20 0 34.5 14t14.5 35q0 20 -14.5 34.5t-34.5 14.5q-21 0 -35 -14.5t-14 -34.5z" />
    <glyph glyph-name="AEacute" unicode="&#x1fc;" horiz-adv-x="721" 
d="M26 33l230 625q11 28 7 33h438v-166q-6 7 -33 7h-120v-108h105q27 0 33 7v-155q-6 7 -33 7h-105v-118h120q27 0 33 7v-172h-347q7 6 7 33v178h-87l-64 -178q-10 -29 -7 -33h-198q11 7 21 33zM308 338h53v170zM392 742l49 155h143l-91 -155h-101z" />
    <glyph glyph-name="aeacute" unicode="&#x1fd;" horiz-adv-x="721" 
d="M26 33l230 625q11 28 7 33h438v-166q-6 7 -33 7h-120v-108h105q27 0 33 7v-155q-6 7 -33 7h-105v-118h120q27 0 33 7v-172h-347q7 6 7 33v178h-87l-64 -178q-10 -29 -7 -33h-198q11 7 21 33zM308 338h53v170zM392 742l49 155h143l-91 -155h-101z" />
    <glyph glyph-name="Oslashacute" unicode="&#x1fe;" horiz-adv-x="509" 
d="M-19 -10l65 102q-64 92 -64 256q0 167 69 260t202 93q89 0 153 -45l22 35h100l-62 -98q59 -91 59 -245q0 -168 -69.5 -263t-202.5 -95q-85 0 -145 40l-26 -40h-101zM189 317l111 173q-16 46 -47 46q-64 0 -64 -188v-31zM318 348v13l-108 -170q16 -36 43 -36q65 0 65 193z
M197 742l49 155h143l-91 -155h-101z" />
    <glyph glyph-name="oslashacute" unicode="&#x1ff;" horiz-adv-x="509" 
d="M-19 -10l65 102q-64 92 -64 256q0 167 69 260t202 93q89 0 153 -45l22 35h100l-62 -98q59 -91 59 -245q0 -168 -69.5 -263t-202.5 -95q-85 0 -145 40l-26 -40h-101zM189 317l111 173q-16 46 -47 46q-64 0 -64 -188v-31zM318 348v13l-108 -170q16 -36 43 -36q65 0 65 193z
M197 742l49 155h143l-91 -155h-101z" />
    <glyph glyph-name="Scommaaccent" unicode="&#x218;" horiz-adv-x="465" 
d="M24 15v198q79 -60 154 -60q29 0 45 14t16 35q0 22 -12 40t-41 40q-8 6 -34.5 27t-34 27.5t-26.5 25t-25.5 31t-16.5 32t-13.5 41.5t-3.5 48q0 82 59.5 134.5t156.5 52.5q67 0 126 -19q11 -4 17 -4l13 5v-178q-56 37 -108 37q-30 0 -45.5 -12t-15.5 -31q0 -26 62 -71
q48 -37 74 -61.5t48 -66t22 -89.5q0 -99 -65.5 -160t-182.5 -61q-58 0 -139 26q-11 4 -17 4zM144 -194l-11 72q30 0 44.5 20.5t14.5 53.5h109q0 -57 -37 -101.5t-120 -44.5z" />
    <glyph glyph-name="scommaaccent" unicode="&#x219;" horiz-adv-x="465" 
d="M24 15v198q79 -60 154 -60q29 0 45 14t16 35q0 22 -12 40t-41 40q-8 6 -34.5 27t-34 27.5t-26.5 25t-25.5 31t-16.5 32t-13.5 41.5t-3.5 48q0 82 59.5 134.5t156.5 52.5q67 0 126 -19q11 -4 17 -4l13 5v-178q-56 37 -108 37q-30 0 -45.5 -12t-15.5 -31q0 -26 62 -71
q48 -37 74 -61.5t48 -66t22 -89.5q0 -99 -65.5 -160t-182.5 -61q-58 0 -139 26q-11 4 -17 4zM144 -194l-11 72q30 0 44.5 20.5t14.5 53.5h109q0 -57 -37 -101.5t-120 -44.5z" />
    <glyph glyph-name="Tcommaaccent" unicode="&#x21a;" horiz-adv-x="441" 
d="M122 33v499h-81q-27 0 -33 -7v166h425v-166q-6 7 -33 7h-81v-499q0 -27 7 -33h-211q7 6 7 33zM126 -194l-11 72q30 0 44.5 20.5t14.5 53.5h109q0 -57 -37 -101.5t-120 -44.5z" />
    <glyph glyph-name="tcommaaccent" unicode="&#x21b;" horiz-adv-x="441" 
d="M122 33v499h-81q-27 0 -33 -7v166h425v-166q-6 7 -33 7h-81v-499q0 -27 7 -33h-211q7 6 7 33zM126 -194l-11 72q30 0 44.5 20.5t14.5 53.5h109q0 -57 -37 -101.5t-120 -44.5z" />
    <glyph glyph-name="circumflex" unicode="&#x2c6;" horiz-adv-x="332" 
d="M18 742l69 155h158l69 -155h-107l-41 89l-41 -89h-107z" />
    <glyph glyph-name="caron" unicode="&#x2c7;" horiz-adv-x="332" 
d="M87 741l-69 155h107l41 -89l41 89h107l-69 -155h-158z" />
    <glyph glyph-name="breve" unicode="&#x2d8;" horiz-adv-x="317" 
d="M10 907h72q11 -33 29 -45t48 -12t48 12t28 45h72q-4 -70 -44.5 -113t-103.5 -43t-103.5 43t-45.5 113z" />
    <glyph glyph-name="dotaccent" unicode="&#x2d9;" horiz-adv-x="237" 
d="M44 817q0 31 21.5 53t52.5 22t53 -22t22 -53t-22 -52.5t-53 -21.5t-52.5 21.5t-21.5 52.5z" />
    <glyph glyph-name="ring" unicode="&#x2da;" horiz-adv-x="298" 
d="M41 825q0 45 31 76.5t77 31.5q45 0 76.5 -31.5t31.5 -76.5q0 -46 -31.5 -77t-76.5 -31q-46 0 -77 31t-31 77zM100 825q0 -21 14 -35t35 -14q20 0 34.5 14t14.5 35q0 20 -14.5 34.5t-34.5 14.5q-21 0 -35 -14.5t-14 -34.5z" />
    <glyph glyph-name="ogonek" unicode="&#x2db;" horiz-adv-x="242" 
d="M154 0h69q-38 -34 -38 -71q0 -19 12.5 -29.5t32.5 -10.5q17 0 38 7l-8 -79q-21 -10 -46 -10q-47 0 -83 23t-36 68q0 55 59 102z" />
    <glyph glyph-name="tilde" unicode="&#x2dc;" horiz-adv-x="401" 
d="M24 749v16q0 50 30 86t80 36q31 0 69.5 -17t53.5 -17q37 0 37 36h83v-16q0 -50 -30 -86t-80 -36q-31 0 -69.5 17t-53.5 17q-36 0 -36 -36h-84z" />
    <glyph glyph-name="hungarumlaut" unicode="&#x2dd;" horiz-adv-x="423" 
d="M23 742l49 155h143l-91 -155h-101zM208 742l48 155h144l-91 -155h-101z" />
    <glyph glyph-name="Wgrave" unicode="&#x1e80;" horiz-adv-x="813" 
d="M148 33l-121 625q-7 29 -14 33h200q-5 -6 0 -33l48 -399l49 399q2 30 -1 33h195q-5 -6 0 -33l56 -414l51 414q2 30 -1 33h190q-9 -6 -13 -33l-122 -625q-5 -27 1 -33h-217q5 6 0 33l-44 228l-41 -228q-5 -27 1 -33h-217q6 8 0 33zM360 742l-91 155h143l49 -155h-101z" />
    <glyph glyph-name="wgrave" unicode="&#x1e81;" horiz-adv-x="813" 
d="M148 33l-121 625q-7 29 -14 33h200q-5 -6 0 -33l48 -399l49 399q2 30 -1 33h195q-5 -6 0 -33l56 -414l51 414q2 30 -1 33h190q-9 -6 -13 -33l-122 -625q-5 -27 1 -33h-217q5 6 0 33l-44 228l-41 -228q-5 -27 1 -33h-217q6 8 0 33zM360 742l-91 155h143l49 -155h-101z" />
    <glyph glyph-name="Wacute" unicode="&#x1e82;" horiz-adv-x="813" 
d="M148 33l-121 625q-7 29 -14 33h200q-5 -6 0 -33l48 -399l49 399q2 30 -1 33h195q-5 -6 0 -33l56 -414l51 414q2 30 -1 33h190q-9 -6 -13 -33l-122 -625q-5 -27 1 -33h-217q5 6 0 33l-44 228l-41 -228q-5 -27 1 -33h-217q6 8 0 33zM352 742l49 155h143l-91 -155h-101z" />
    <glyph glyph-name="wacute" unicode="&#x1e83;" horiz-adv-x="813" 
d="M148 33l-121 625q-7 29 -14 33h200q-5 -6 0 -33l48 -399l49 399q2 30 -1 33h195q-5 -6 0 -33l56 -414l51 414q2 30 -1 33h190q-9 -6 -13 -33l-122 -625q-5 -27 1 -33h-217q5 6 0 33l-44 228l-41 -228q-5 -27 1 -33h-217q6 8 0 33zM352 742l49 155h143l-91 -155h-101z" />
    <glyph glyph-name="Wdieresis" unicode="&#x1e84;" horiz-adv-x="813" 
d="M148 33l-121 625q-7 29 -14 33h200q-5 -6 0 -33l48 -399l49 399q2 30 -1 33h195q-5 -6 0 -33l56 -414l51 414q2 30 -1 33h190q-9 -6 -13 -33l-122 -625q-5 -27 1 -33h-217q5 6 0 33l-44 228l-41 -228q-5 -27 1 -33h-217q6 8 0 33zM432 818q0 31 21.5 53t52.5 22t53 -22
t22 -53t-22 -52.5t-53 -21.5t-52.5 21.5t-21.5 52.5zM231 818q0 31 21.5 53t52.5 22t53 -22t22 -53t-22 -52.5t-53 -21.5t-52.5 21.5t-21.5 52.5z" />
    <glyph glyph-name="wdieresis" unicode="&#x1e85;" horiz-adv-x="813" 
d="M148 33l-121 625q-7 29 -14 33h200q-5 -6 0 -33l48 -399l49 399q2 30 -1 33h195q-5 -6 0 -33l56 -414l51 414q2 30 -1 33h190q-9 -6 -13 -33l-122 -625q-5 -27 1 -33h-217q5 6 0 33l-44 228l-41 -228q-5 -27 1 -33h-217q6 8 0 33zM432 818q0 31 21.5 53t52.5 22t53 -22
t22 -53t-22 -52.5t-53 -21.5t-52.5 21.5t-21.5 52.5zM231 818q0 31 21.5 53t52.5 22t53 -22t22 -53t-22 -52.5t-53 -21.5t-52.5 21.5t-21.5 52.5z" />
    <glyph glyph-name="Ygrave" unicode="&#x1ef2;" horiz-adv-x="545" 
d="M174 33v262l-149 363q-10 27 -21 33h216q-5 -9 2 -33l50 -155l51 155q7 24 2 33h216q-11 -6 -21 -33l-149 -363v-262q0 -27 7 -33h-211q7 6 7 33zM227 742l-91 155h143l49 -155h-101z" />
    <glyph glyph-name="ygrave" unicode="&#x1ef3;" horiz-adv-x="545" 
d="M174 33v262l-149 363q-10 27 -21 33h216q-5 -9 2 -33l50 -155l51 155q7 24 2 33h216q-11 -6 -21 -33l-149 -363v-262q0 -27 7 -33h-211q7 6 7 33zM227 742l-91 155h143l49 -155h-101z" />
    <glyph glyph-name="endash" unicode="&#x2013;" horiz-adv-x="519" 
d="M30 222v182q6 -7 33 -7h393q27 0 33 7v-182q-6 7 -33 7h-393q-27 0 -33 -7z" />
    <glyph glyph-name="emdash" unicode="&#x2014;" horiz-adv-x="779" 
d="M30 222v182q6 -7 33 -7h653q27 0 33 7v-182q-6 7 -33 7h-653q-27 0 -33 -7z" />
    <glyph glyph-name="quoteleft" unicode="&#x2018;" horiz-adv-x="310" 
d="M33 412l125 312h129l-81 -312h-173z" />
    <glyph glyph-name="quoteright" unicode="&#x2019;" horiz-adv-x="310" 
d="M23 412l81 312h173l-125 -312h-129z" />
    <glyph glyph-name="quotesinglbase" unicode="&#x201a;" horiz-adv-x="310" 
d="M23 -138l81 312h173l-125 -312h-129z" />
    <glyph glyph-name="quotedblleft" unicode="&#x201c;" horiz-adv-x="524" 
d="M247 412l125 312h129l-81 -312h-173zM33 412l125 312h129l-81 -312h-173z" />
    <glyph glyph-name="quotedblright" unicode="&#x201d;" horiz-adv-x="524" 
d="M23 412l81 312h173l-125 -312h-129zM237 412l81 312h173l-125 -312h-129z" />
    <glyph glyph-name="quotedblbase" unicode="&#x201e;" horiz-adv-x="524" 
d="M23 -138l81 312h173l-125 -312h-129zM237 -138l81 312h173l-125 -312h-129z" />
    <glyph glyph-name="dagger" unicode="&#x2020;" horiz-adv-x="519" 
d="M180 -166l10 534l-171 -10v139l171 -10l-10 191h158l-10 -191l172 10v-139l-172 10l10 -534h-158z" />
    <glyph glyph-name="daggerdbl" unicode="&#x2021;" horiz-adv-x="517" 
d="M180 -166l10 191l-172 -10v139l172 -10l-10 112l9 112l-171 -10v139l171 -10l-9 191h158l-11 -191l172 10v-139l-172 10l11 -112l-10 -112l171 10v-139l-171 10l10 -191h-158z" />
    <glyph glyph-name="bullet" unicode="&#x2022;" horiz-adv-x="406" 
d="M29 362q0 72 51 123t123 51t123 -51t51 -123t-51 -123t-123 -51t-123 51t-51 123z" />
    <glyph glyph-name="ellipsis" unicode="&#x2026;" horiz-adv-x="886" 
d="M33 94q0 44 30.5 74.5t73.5 30.5t74 -30.5t31 -74.5q0 -43 -30.5 -73.5t-74.5 -30.5q-43 0 -73.5 30t-30.5 74zM339 94q0 44 30.5 74.5t73.5 30.5t74 -30.5t31 -74.5q0 -43 -30.5 -73.5t-74.5 -30.5q-43 0 -73.5 30t-30.5 74zM644 94q0 44 30.5 74.5t73.5 30.5
q44 0 74.5 -30.5t30.5 -74.5q0 -43 -30.5 -73.5t-74.5 -30.5t-74 30t-30 74z" />
    <glyph glyph-name="perthousand" unicode="&#x2030;" horiz-adv-x="1026" 
d="M28 -26l526 744h111l-529 -744h-108zM163 363q-61 0 -100.5 46.5t-39.5 124.5q0 77 39.5 122.5t100.5 45.5t101 -45.5t40 -122.5q0 -78 -40 -124.5t-101 -46.5zM163 452q29 0 29 80q0 82 -29 82q-28 0 -28 -82q0 -80 28 -80zM530 -14q-61 0 -100.5 46.5t-39.5 124.5
q0 77 39.5 122.5t100.5 45.5t101 -45.5t40 -122.5q0 -78 -40 -124.5t-101 -46.5zM530 75q29 0 29 80q0 82 -29 82q-28 0 -28 -82q0 -80 28 -80zM862 -14q-61 0 -100.5 46.5t-39.5 124.5q0 77 39.5 122.5t100.5 45.5t101 -45.5t40 -122.5q0 -78 -40 -124.5t-101 -46.5z
M862 75q29 0 29 80q0 82 -29 82q-28 0 -28 -82q0 -80 28 -80z" />
    <glyph glyph-name="guilsinglleft" unicode="&#x2039;" horiz-adv-x="275" 
d="M174 92l-158 209l158 209l85 -26l-113 -183l113 -183z" />
    <glyph glyph-name="guilsinglright" unicode="&#x203a;" horiz-adv-x="275" 
d="M16 118l113 183l-113 183l85 26l158 -209l-158 -209z" />
    <glyph glyph-name="fraction" unicode="&#x2044;" horiz-adv-x="497" 
d="M-103 -26l526 744h112l-530 -744h-108z" />
    <glyph glyph-name="Euro" unicode="&#x20ac;" horiz-adv-x="464" 
d="M24 241v76h63q0 5 -0.5 15t-0.5 16q0 20 1 30h-63v76h71q21 117 88 182t169 65q41 0 69 -11q7 -3 13 -3l12 5l2 -182q-28 26 -72 26q-27 0 -50.5 -22t-36.5 -60h128v-76h-143q-2 -20 -2 -30q0 -11 2 -31h143v-76h-129q13 -41 37 -63.5t51 -22.5q44 0 72 26l-2 -182
q-5 5 -12 5q-6 0 -13 -3q-28 -11 -63 -11q-101 0 -171 65t-92 186h-71z" />
    <glyph glyph-name="uni2117" unicode="&#x2117;" horiz-adv-x="697" 
d="M672 318q0 -133 -95.5 -226.5t-227.5 -93.5q-135 0 -229.5 93t-94.5 227t94.5 228t229.5 94q131 0 227 -94.5t96 -227.5zM632 318q0 117 -83.5 201.5t-199.5 84.5q-120 0 -203 -84t-83 -202q0 -119 83 -203.5t203 -84.5q116 0 199.5 85t83.5 203zM512 390q0 -55 -33 -86
t-96 -31h-82v-142h-53v373h131q63 0 98 -32t35 -82zM301 456v-141h79q82 0 82 75q0 30 -20.5 48t-61.5 18h-79z" />
    <glyph glyph-name="trademark" unicode="&#x2122;" horiz-adv-x="437" 
d="M117 418h-30v204h-72v26h172v-26h-70v-204zM256 648l62 -193l62 193h42v-230h-27v196l-63 -196h-28l-63 196v-196h-27v230h42z" />
    <glyph glyph-name="minus" unicode="&#x2212;" horiz-adv-x="456" 
d="M23 295v106h410v-106h-410z" />
    <glyph glyph-name="lessequal" unicode="&#x2264;" horiz-adv-x="456" 
d="M23 378v98l410 81v-92l-270 -38l270 -38v-92zM23 143v106h410v-106h-410z" />
    <glyph glyph-name="greaterequal" unicode="&#x2265;" horiz-adv-x="456" 
d="M23 297v92l270 38l-270 38v92l410 -81v-98zM23 143v106h410v-106h-410z" />
    <glyph glyph-name="fi" unicode="&#xfb01;" horiz-adv-x="675" 
d="M39 33v625q0 27 -7 33h357v-166q-6 7 -33 7h-120v-108h105q27 0 33 7v-155q-6 7 -33 7h-105v-250q0 -27 7 -33h-211q7 6 7 33zM439 33v625q0 27 -7 33h211q-7 -6 -7 -33v-625q0 -27 7 -33h-211q7 6 7 33z" />
    <glyph glyph-name="fl" unicode="&#xfb02;" horiz-adv-x="799" 
d="M39 33v625q0 27 -7 33h357v-166q-6 7 -33 7h-120v-108h105q27 0 33 7v-155q-6 7 -33 7h-105v-250q0 -27 7 -33h-211q7 6 7 33zM439 33v625q0 27 -7 33h211q-7 -6 -7 -33v-503h120q27 0 33 7v-162h-357q7 6 7 33z" />
    <glyph glyph-name="CR" horiz-adv-x="500" 
 />
    <glyph glyph-name="caron.alt" horiz-adv-x="332" 
d="M93 518l19 206h125l-50 -206h-94z" />
    <glyph glyph-name="commaaccent" horiz-adv-x="244" 
d="M43 -194l-11 72q30 0 44.5 20.5t14.5 53.5h109q0 -57 -37 -101.5t-120 -44.5z" />
    <glyph glyph-name="publish" horiz-adv-x="697" 
d="M672 318q0 -133 -95.5 -226.5t-227.5 -93.5q-135 0 -229.5 93t-94.5 227t94.5 228t229.5 94q131 0 227 -94.5t96 -227.5zM632 318q0 117 -83.5 201.5t-199.5 84.5q-120 0 -203 -84t-83 -202q0 -119 83 -203.5t203 -84.5q116 0 199.5 85t83.5 203zM512 390q0 -55 -33 -86
t-96 -31h-82v-142h-53v373h131q63 0 98 -32t35 -82zM301 456v-141h79q82 0 82 75q0 30 -20.5 48t-61.5 18h-79z" />
    </font>
</defs>
</svg>
